<svg width="29" height="32" viewBox="0 0 29 32" fill="none" xmlns="http://www.w3.org/2000/svg">
<path d="M2 7.6L6.16667 2H22.8333L27 7.6M2 7.6V27.2C2 27.9426 2.29266 28.6548 2.81359 29.1799C3.33453 29.705 4.04107 30 4.77778 30H24.2222C24.9589 30 25.6655 29.705 26.1864 29.1799C26.7073 28.6548 27 27.9426 27 27.2V7.6M2 7.6H27M20.0556 13.2C20.0556 14.6852 19.4702 16.1096 18.4284 17.1598C17.3865 18.21 15.9734 18.8 14.5 18.8C13.0266 18.8 11.6135 18.21 10.5716 17.1598C9.52976 16.1096 8.94444 14.6852 8.94444 13.2" stroke="#42382E" stroke-width="4" stroke-linecap="round" stroke-linejoin="round"/>
</svg>
