<svg width="600" height="600" viewBox="0 0 600 600" fill="none" xmlns="http://www.w3.org/2000/svg">
<rect width="600" height="600" rx="130" fill="white"/>
<path d="M338.314 78.8023C333.246 90.3084 327.258 101.75 322.521 118.276C317.788 134.793 314.307 156.391 314.307 188.136C314.307 219.786 328.104 249.935 341.97 280.09C355.813 310.199 369.728 340.319 369.728 371.752C369.728 412.289 355.424 439.939 337.711 461.238C344.003 440.19 346.691 416.409 341.482 393.026C336.058 368.672 325.658 351.914 315.152 336.766C304.636 321.606 294.066 308.119 288.14 290.213C276.254 254.3 276.978 229.53 281.874 211.222L282.382 209.32L280.997 210.721C265.138 226.753 250.466 254.884 241.455 287.135C232.443 319.394 229.075 355.846 235.893 388.55C246.426 439.071 273.551 477.399 293.79 500.162C273.329 485.402 249.84 468.904 231.28 443.918C212.125 418.132 198.238 383.332 198.238 332.107C198.238 273.029 221.206 218.333 250.083 174.028C278.96 129.724 313.772 95.7724 337.523 78.1737L339.107 77L338.314 78.8023Z" fill="black"/>
<path d="M207.649 96.8222C207.649 96.8222 208.533 114.236 215.557 121.571C221.831 128.123 236.928 130.728 236.928 130.728C236.928 130.728 221.831 133.334 215.557 139.886C208.533 147.221 207.649 164.635 207.649 164.635C207.649 164.635 206.765 147.221 199.741 139.886C193.467 133.334 178.37 130.728 178.37 130.728C178.37 130.728 193.467 128.123 199.741 121.571C206.765 114.236 207.649 96.8222 207.649 96.8222Z" fill="black"/>
<path d="M382.276 477.616C382.276 477.616 382.885 489.405 387.642 494.369C391.9 498.812 402.144 500.568 402.144 500.568C402.144 500.568 391.9 502.324 387.642 506.767C382.885 511.732 382.276 523.52 382.276 523.52C382.276 523.52 381.667 511.732 376.91 506.767C372.652 502.324 362.408 500.568 362.408 500.568C362.408 500.568 372.652 498.812 376.91 494.369C381.667 489.405 382.276 477.616 382.276 477.616Z" fill="black"/>
<path d="M162.685 356.597C162.685 356.597 163.145 365.972 166.921 369.923C170.283 373.439 178.37 374.854 178.37 374.854C178.37 374.854 170.283 376.269 166.921 379.785C163.145 383.736 162.685 393.111 162.685 393.111C162.685 393.111 162.226 383.736 158.449 379.785C155.088 376.269 147 374.854 147 374.854C147 374.854 155.088 373.439 158.449 369.923C162.226 365.972 162.685 356.597 162.685 356.597Z" fill="black"/>
<path d="M415.044 424.972C414.973 426.251 414.973 426.251 414.973 426.251L414.971 426.25H414.965C414.962 426.25 414.958 426.249 414.953 426.249C414.944 426.249 414.931 426.248 414.916 426.247C414.887 426.245 414.849 426.241 414.801 426.237C414.705 426.228 414.573 426.214 414.407 426.192C414.075 426.147 413.609 426.07 413.034 425.938C411.886 425.675 410.299 425.193 408.491 424.311C404.86 422.541 400.379 419.183 396.757 412.869C393.139 406.562 392.317 400.687 392.411 396.374C392.458 394.221 392.733 392.457 393 391.221C393.134 390.603 393.266 390.115 393.367 389.775C393.417 389.605 393.46 389.472 393.491 389.377C393.507 389.33 393.521 389.293 393.53 389.265L393.547 389.22L393.548 389.215L393.549 389.214C393.554 389.215 393.638 389.245 395.02 389.754L393.549 389.212L394.075 387.791L395.515 388.269L395.02 389.754C395.493 388.337 395.515 388.272 395.516 388.27L395.522 388.271C395.524 388.272 395.528 388.273 395.532 388.275C395.54 388.277 395.55 388.281 395.563 388.286C395.59 388.295 395.628 388.308 395.675 388.325C395.769 388.358 395.903 388.407 396.072 388.472C396.41 388.603 396.892 388.799 397.485 389.066C398.671 389.601 400.309 390.426 402.144 391.597C405.806 393.934 410.305 397.682 413.525 403.294C416.278 408.093 417.236 412.762 417.433 416.534C419.152 413.196 422.095 409.381 427.121 406.012C433.167 401.96 438.981 400.721 443.3 400.506C445.456 400.398 447.238 400.545 448.493 400.723C449.121 400.811 449.619 400.908 449.966 400.984C450.139 401.023 450.276 401.056 450.372 401.08C450.421 401.093 450.459 401.102 450.488 401.11C450.502 401.114 450.513 401.117 450.522 401.12C450.527 401.121 450.53 401.122 450.534 401.123L450.538 401.124L450.54 401.125C450.54 401.128 450.521 401.196 450.106 402.629L451.625 403.016L451.624 403.017L451.623 403.021C451.622 403.024 451.622 403.027 451.621 403.031C451.619 403.04 451.616 403.05 451.612 403.064C451.605 403.091 451.595 403.129 451.581 403.177C451.554 403.273 451.515 403.409 451.462 403.582C451.356 403.929 451.195 404.423 450.97 405.032C450.52 406.251 449.812 407.94 448.773 409.849C446.7 413.661 443.276 418.407 437.896 422.013C432.506 425.626 427.118 426.778 423.084 427.025C421.067 427.149 419.382 427.047 418.191 426.912C417.596 426.845 417.122 426.769 416.791 426.709C416.626 426.678 416.496 426.652 416.404 426.632C416.359 426.622 416.322 426.614 416.295 426.608C416.282 426.605 416.27 426.603 416.261 426.601C416.257 426.6 416.254 426.598 416.251 426.598L416.247 426.597H416.245L416.617 425.075L416.244 426.596L415.068 426.309L415.067 426.256L414.975 426.251L415.044 424.972ZM416.281 425.08L416.283 425.081H416.286L416.284 425.08H416.281ZM421.109 423.949C421.661 423.952 422.257 423.94 422.891 423.901C426.504 423.679 431.319 422.65 436.145 419.415C440.982 416.173 444.101 411.876 446.016 408.357C446.333 407.774 446.614 407.213 446.866 406.685L421.109 423.949ZM395.706 394.1C395.626 394.802 395.566 395.587 395.547 396.443C395.463 400.289 396.191 405.582 399.48 411.314C402.764 417.04 406.755 419.981 409.869 421.499C410.604 421.858 411.293 422.136 411.915 422.355L395.706 394.1ZM445.81 403.622C445.103 403.593 444.314 403.59 443.457 403.632C439.606 403.825 434.366 404.927 428.871 408.61C423.382 412.289 420.728 416.472 419.433 419.68C419.128 420.437 418.898 421.143 418.723 421.778L445.81 403.622ZM414.257 420.136C414.3 419.588 414.331 418.994 414.337 418.36C414.375 414.749 413.691 409.884 410.802 404.849C407.908 399.803 403.835 396.391 400.454 394.234C399.893 393.876 399.353 393.555 398.842 393.267L414.257 420.136ZM452 401.547L451.625 403.016L450.106 402.629L450.542 401.125L452 401.547ZM415.052 424.837C415.052 424.832 415.053 424.828 415.053 424.823C415.05 424.874 415.047 424.924 415.044 424.972L415.052 424.837Z" fill="black"/>
<path d="M437.174 311.536L435.878 311.698C437.088 311.546 437.169 311.536 437.174 311.536L437.175 311.538V311.541C437.176 311.543 437.176 311.547 437.176 311.55C437.177 311.557 437.178 311.567 437.18 311.579C437.182 311.603 437.186 311.637 437.191 311.68C437.199 311.765 437.211 311.887 437.223 312.042C437.248 312.354 437.274 312.801 437.286 313.363C437.31 314.485 437.275 316.067 437.044 317.931C436.582 321.651 435.331 326.547 432.146 331.143C428.955 335.747 424.988 338.371 421.822 339.841C420.24 340.576 418.852 341.024 417.853 341.291C417.488 341.388 417.173 341.459 416.92 341.513L416.942 341.673L416.009 342.056L415.859 341.693C416.005 342.049 416.008 342.057 416.008 342.057H416.006L416.002 342.059C415.999 342.06 415.996 342.061 415.992 342.063C415.985 342.066 415.974 342.069 415.963 342.074C415.94 342.083 415.908 342.094 415.87 342.109C415.793 342.137 415.684 342.176 415.547 342.22C415.273 342.308 414.881 342.421 414.385 342.531C413.393 342.753 411.977 342.967 410.239 342.952C406.75 342.922 402.004 341.971 396.821 338.396C391.644 334.824 388.81 330.55 387.272 327.153C386.505 325.458 386.06 323.981 385.807 322.919C385.68 322.388 385.601 321.959 385.553 321.657C385.529 321.506 385.512 321.386 385.502 321.301C385.496 321.259 385.492 321.224 385.489 321.199L385.485 321.159V321.154L386.786 321.032C386.635 319.829 386.625 319.744 386.625 319.738L386.626 319.737H386.629C386.631 319.737 386.635 319.737 386.638 319.736C386.645 319.736 386.655 319.735 386.667 319.733C386.691 319.731 386.725 319.726 386.768 319.722C386.853 319.713 386.975 319.702 387.131 319.689C387.444 319.665 387.892 319.639 388.455 319.627C389.579 319.603 391.165 319.637 393.034 319.868C396.763 320.328 401.67 321.577 406.276 324.755C410.01 327.331 412.444 330.416 414.017 333.173C414.35 329.957 415.513 325.982 418.474 321.71C422.054 316.545 426.338 313.717 429.742 312.183C431.442 311.417 432.922 310.974 433.986 310.721C434.519 310.594 434.949 310.515 435.252 310.467C435.403 310.443 435.523 310.427 435.608 310.416C435.651 310.411 435.685 310.407 435.71 310.404L435.751 310.4H435.756C435.757 310.406 435.765 310.485 435.866 311.579L435.757 310.399L437.017 310.283L437.174 311.536ZM388.85 324.042C389.059 324.659 389.322 325.345 389.655 326.08C391.031 329.121 393.586 332.993 398.308 336.251C403.025 339.506 407.252 340.318 410.262 340.344C411.029 340.351 411.72 340.305 412.322 340.235L388.85 324.042ZM419.141 338.137C419.631 337.953 420.162 337.735 420.719 337.476C423.566 336.154 427.128 333.799 429.997 329.66C432.871 325.512 434.023 321.055 434.45 317.61C434.529 316.969 434.583 316.365 434.618 315.807L419.141 338.137ZM413.286 337.728C413.101 337.239 412.883 336.711 412.624 336.156C411.299 333.315 408.938 329.762 404.789 326.9C400.632 324.032 396.165 322.883 392.712 322.457C392.07 322.377 391.464 322.323 390.905 322.287L413.286 337.728ZM432.86 313.757C432.241 313.965 431.554 314.228 430.819 314.56C427.77 315.933 423.889 318.482 420.623 323.193C417.362 327.9 416.547 332.117 416.521 335.12C416.515 335.885 416.56 336.574 416.63 337.175L432.86 313.757ZM386.786 321.032L385.484 321.153L385.368 319.895L386.625 319.738L386.786 321.032Z" fill="black"/>
<path d="M403.44 244.006L402.452 244.345C403.366 244.032 403.435 244.007 403.44 244.006L403.441 244.008L403.442 244.011C403.442 244.011 403.443 244.015 403.444 244.018C403.446 244.024 403.449 244.032 403.453 244.041C403.459 244.061 403.469 244.09 403.48 244.126C403.503 244.198 403.535 244.301 403.573 244.433C403.65 244.697 403.754 245.078 403.866 245.56C404.09 246.525 404.346 247.899 404.484 249.552C404.759 252.852 404.562 257.308 402.642 261.851C400.719 266.402 397.767 269.381 395.299 271.22C394.065 272.14 392.948 272.778 392.134 273.188C391.727 273.393 391.395 273.54 391.16 273.639C391.042 273.688 390.949 273.726 390.883 273.751C390.85 273.764 390.823 273.774 390.804 273.781C390.795 273.784 390.788 273.788 390.782 273.79C390.779 273.791 390.776 273.791 390.774 273.792L390.772 273.793C390.77 273.789 390.747 273.73 390.42 272.81C390.341 272.864 390.268 272.912 390.202 272.956L390.42 272.81L390.77 273.794L390.516 273.883L390.617 274.198L389.933 274.627L389.377 273.743C389.907 274.586 389.933 274.625 389.933 274.627L389.93 274.628L389.928 274.63C389.926 274.632 389.923 274.633 389.92 274.634C389.914 274.638 389.907 274.643 389.898 274.649C389.879 274.66 389.854 274.675 389.823 274.693C389.761 274.728 389.674 274.777 389.563 274.835C389.339 274.952 389.016 275.107 388.603 275.277C387.776 275.617 386.579 276.013 385.069 276.259C382.036 276.754 377.769 276.637 372.724 274.301C367.684 271.967 364.577 268.673 362.732 265.95C361.81 264.59 361.202 263.373 360.823 262.489C360.633 262.047 360.5 261.687 360.414 261.433C360.37 261.305 360.338 261.205 360.317 261.133C360.306 261.098 360.298 261.069 360.292 261.048C360.289 261.038 360.287 261.029 360.285 261.023C360.284 261.02 360.283 261.017 360.283 261.015L360.282 261.012L360.281 261.01C360.281 261.01 360.306 261.002 361.291 260.738C360.986 259.74 360.987 259.739 360.987 259.739L360.991 259.738C360.991 259.738 360.995 259.737 360.998 259.736C361.004 259.734 361.012 259.732 361.022 259.729C361.042 259.723 361.071 259.715 361.107 259.705C361.179 259.684 361.284 259.657 361.417 259.623C361.685 259.556 362.071 259.466 362.559 259.372C363.534 259.183 364.919 258.975 366.579 258.897C369.895 258.74 374.351 259.093 378.833 261.169C383.133 263.16 385.955 266.042 387.728 268.501C387.145 265.501 387.134 261.281 389.271 256.226C391.43 251.118 394.62 247.904 397.282 245.967C398.611 245 399.809 244.351 400.681 243.941C401.117 243.737 401.473 243.591 401.725 243.495C401.85 243.448 401.95 243.412 402.021 243.388C402.056 243.376 402.085 243.366 402.106 243.36C402.116 243.356 402.125 243.354 402.131 243.352C402.134 243.351 402.137 243.35 402.139 243.35L402.142 243.349C402.144 243.354 402.165 243.414 402.384 244.126L402.144 243.348L403.111 243.051L403.44 244.006ZM363.29 262.814C363.595 263.401 363.98 264.069 364.464 264.781C366.135 267.247 368.966 270.261 373.605 272.409C378.239 274.555 382.078 274.633 384.732 274.2C385.535 274.07 386.233 273.89 386.814 273.706L363.29 262.814ZM377.953 263.062C373.867 261.17 369.772 260.835 366.678 260.981C365.945 261.016 365.27 261.078 364.668 261.151L387.238 271.603C386.963 271.116 386.633 270.578 386.239 270.011C384.644 267.715 382.032 264.95 377.953 263.062ZM392.488 270.602C392.967 270.31 393.494 269.961 394.048 269.548C396.29 267.877 398.968 265.175 400.715 261.041C402.465 256.9 402.656 252.805 402.4 249.725C402.339 248.995 402.252 248.324 402.157 247.726L392.488 270.602ZM400.442 246.413C399.865 246.738 399.211 247.145 398.514 247.652C396.104 249.406 393.185 252.335 391.198 257.036C389.212 261.733 389.27 265.564 389.798 268.194C389.957 268.991 390.161 269.681 390.366 270.254L400.442 246.413ZM361.291 260.738L360.281 261.01L360.018 260.034L360.986 259.74L361.291 260.738Z" fill="black"/>
<path d="M375.269 192.904L375.27 192.905V192.907C375.27 192.907 375.271 192.91 375.272 192.912C375.273 192.917 375.275 192.923 375.277 192.93C375.281 192.944 375.287 192.963 375.294 192.988C375.307 193.037 375.327 193.109 375.35 193.2C375.396 193.382 375.457 193.645 375.521 193.977C375.65 194.641 375.792 195.584 375.845 196.714C375.951 198.969 375.708 202.002 374.287 205.054C372.863 208.111 370.775 210.071 369.046 211.265C368.182 211.862 367.404 212.27 366.838 212.53C366.555 212.66 366.324 212.753 366.16 212.815C366.079 212.846 366.014 212.868 365.968 212.884C365.945 212.892 365.927 212.899 365.913 212.904C365.907 212.906 365.901 212.907 365.897 212.909L365.892 212.91L365.89 212.911L365.653 212.165L365.888 212.912L365.311 213.092L365.283 213.049L365.106 213.132H365.104L365.096 213.136C365.092 213.138 365.086 213.14 365.079 213.143C365.065 213.149 365.047 213.158 365.025 213.168C364.979 213.187 364.914 213.212 364.833 213.242C364.67 213.302 364.437 213.38 364.141 213.46C363.55 213.619 362.704 213.783 361.659 213.82C359.559 213.892 356.678 213.443 353.467 211.426C350.259 209.411 348.442 206.913 347.429 204.909C346.923 203.909 346.618 203.031 346.438 202.399C346.347 202.082 346.289 201.826 346.252 201.646C346.233 201.556 346.22 201.485 346.212 201.434L346.199 201.354C346.198 201.352 346.199 201.348 346.199 201.348L346.198 201.346C346.198 201.346 346.213 201.343 346.975 201.239L346.198 201.344L346.095 200.594L346.844 200.467H346.847L346.852 200.466C346.856 200.465 346.862 200.464 346.869 200.463C346.884 200.461 346.904 200.457 346.93 200.454C346.981 200.446 347.055 200.436 347.148 200.425C347.336 200.403 347.605 200.375 347.943 200.353C348.619 200.309 349.574 200.289 350.704 200.379C352.96 200.56 355.945 201.184 358.799 202.977C361.151 204.455 362.708 206.284 363.726 207.923C363.624 206.008 363.931 203.596 365.212 200.846C366.809 197.416 369.063 195.302 370.927 194.045C371.858 193.418 372.691 193.005 373.297 192.746C373.6 192.617 373.847 192.526 374.022 192.467C374.109 192.438 374.179 192.416 374.228 192.401C374.253 192.393 374.273 192.388 374.288 192.384C374.295 192.382 374.301 192.38 374.306 192.378C374.308 192.378 374.311 192.376 374.311 192.376H374.314C374.314 192.376 374.315 192.376 374.48 192.988L374.315 192.375L375.048 192.179L375.269 192.904ZM348.288 202.988C348.43 203.357 348.608 203.767 348.829 204.204C349.737 205.999 351.375 208.263 354.303 210.102C357.226 211.939 359.793 212.318 361.605 212.256C362.07 212.24 362.487 212.194 362.85 212.135L348.288 202.988ZM363.358 210.606C363.234 210.315 363.091 210 362.919 209.67C362.048 207.995 360.535 205.917 357.963 204.302C355.386 202.683 352.668 202.107 350.578 201.94C350.187 201.909 349.818 201.894 349.479 201.887L363.358 210.606ZM367.278 210.531C367.552 210.371 367.848 210.19 368.154 209.979C369.709 208.904 371.583 207.143 372.864 204.393C374.147 201.638 374.376 198.876 374.277 196.787C374.259 196.396 374.226 196.03 374.19 195.694L367.278 210.531ZM372.945 194.653C372.596 194.84 372.212 195.068 371.805 195.342C370.135 196.468 368.092 198.376 366.634 201.505C365.178 204.631 365.124 207.219 365.416 209.005C365.491 209.463 365.589 209.871 365.693 210.222L372.945 194.653Z" fill="black"/>
<path d="M351.598 131.25C351.241 136.792 351.514 142.368 351.947 147.902C356.39 195.098 374.056 239.904 395.772 281.713C420.688 328.544 430.391 385.078 414.539 436.874C412.828 442.327 410.953 447.592 408.38 452.852C408.061 453.466 407.51 453.927 406.847 454.13C406.185 454.334 405.464 454.264 404.847 453.939C404.229 453.613 403.765 453.057 403.561 452.396C403.357 451.735 403.429 451.022 403.757 450.414C406.091 445.832 408.095 440.571 409.805 435.373C425.988 385.375 417.537 329.618 393.564 282.844C372.408 240.515 355.393 195.254 351.686 147.92C351.34 142.372 351.154 136.787 351.598 131.25Z" fill="black"/>
</svg>
