<svg width="250" height="366" viewBox="0 0 250 366" fill="none" xmlns="http://www.w3.org/2000/svg">
<path d="M156.815 1.47729C152.661 10.9086 147.752 20.2872 143.87 33.8332C139.99 47.3711 137.137 65.0749 137.137 91.095C137.137 117.037 148.446 141.75 159.811 166.468C171.159 191.147 182.564 215.835 182.564 241.6C182.564 274.827 170.839 297.491 156.321 314.949C161.478 297.696 163.681 278.204 159.412 259.037C154.966 239.075 146.441 225.339 137.829 212.923C129.21 200.497 120.546 189.442 115.689 174.765C105.946 145.328 106.539 125.025 110.553 110.018L110.969 108.459L109.834 109.607C96.8347 122.749 84.808 145.806 77.4225 172.241C70.0352 198.683 67.2748 228.562 72.8633 255.369C81.4965 296.78 103.73 328.196 120.32 346.854C103.548 334.756 84.2949 321.232 69.0816 300.752C53.3813 279.616 41.9982 251.092 41.9982 209.104C41.9982 160.679 60.8247 115.846 84.4945 79.5314C108.164 43.2166 136.698 15.3872 156.167 0.962033L157.465 0L156.815 1.47729Z" fill="#42382E"/>
<path d="M49.7122 16.2477C49.7122 16.2477 50.4371 30.5212 56.1941 36.5333C61.3371 41.9043 73.7112 44.0397 73.7112 44.0397C73.7112 44.0397 61.3371 46.1752 56.1941 51.5461C50.4371 57.5583 49.7122 71.8318 49.7122 71.8318C49.7122 71.8318 48.9873 57.5583 43.2303 51.5461C38.0873 46.1752 25.7132 44.0397 25.7132 44.0397C25.7132 44.0397 38.0873 41.9043 43.2303 36.5333C48.9873 30.5212 49.7122 16.2477 49.7122 16.2477Z" fill="#42382E"/>
<path d="M192.849 328.374C192.849 328.374 193.348 338.036 197.247 342.106C200.737 345.748 209.134 347.187 209.134 347.187C209.134 347.187 200.737 348.626 197.247 352.268C193.348 356.337 192.849 366 192.849 366C192.849 366 192.35 356.337 188.451 352.268C184.961 348.626 176.564 347.187 176.564 347.187C176.564 347.187 184.961 345.748 188.451 342.106C192.35 338.036 192.849 328.374 192.849 328.374Z" fill="#42382E"/>
<path d="M12.8566 229.178C12.8566 229.178 13.2332 236.862 16.3291 240.101C19.0841 242.982 25.7132 244.143 25.7132 244.143C25.7132 244.143 19.0841 245.303 16.3291 248.184C13.2332 251.423 12.8566 259.107 12.8566 259.107C12.8566 259.107 12.48 251.423 9.38415 248.184C6.6291 245.303 0 244.143 0 244.143C0 244.143 6.6291 242.982 9.38415 240.101C12.48 236.862 12.8566 229.178 12.8566 229.178Z" fill="#42382E"/>
<path d="M219.708 285.223C219.65 286.271 219.65 286.271 219.65 286.271L219.648 286.271H219.644C219.641 286.27 219.638 286.27 219.634 286.27C219.626 286.269 219.616 286.269 219.604 286.268C219.58 286.266 219.548 286.263 219.509 286.26C219.431 286.252 219.322 286.241 219.186 286.223C218.914 286.186 218.532 286.123 218.061 286.015C217.119 285.799 215.819 285.404 214.337 284.681C211.361 283.23 207.688 280.478 204.719 275.302C201.753 270.133 201.08 265.317 201.157 261.782C201.195 260.017 201.421 258.571 201.64 257.558C201.749 257.052 201.857 256.652 201.94 256.373C201.982 256.234 202.016 256.124 202.042 256.047C202.055 256.008 202.066 255.977 202.074 255.955L202.087 255.918L202.088 255.914L202.089 255.913C202.093 255.914 202.163 255.939 203.295 256.356L202.089 255.911L202.52 254.747L203.701 255.138L203.295 256.356C203.682 255.194 203.701 255.141 203.702 255.139L203.706 255.14C203.708 255.141 203.711 255.142 203.715 255.143C203.721 255.145 203.73 255.149 203.74 255.152C203.762 255.16 203.793 255.17 203.832 255.184C203.909 255.212 204.019 255.252 204.157 255.305C204.435 255.412 204.83 255.573 205.316 255.792C206.288 256.231 207.631 256.907 209.134 257.866C212.136 259.782 215.824 262.854 218.463 267.454C220.719 271.388 221.505 275.214 221.666 278.306C223.075 275.57 225.488 272.444 229.608 269.682C234.563 266.361 239.329 265.345 242.869 265.169C244.636 265.08 246.097 265.201 247.126 265.346C247.64 265.419 248.048 265.499 248.333 265.561C248.475 265.592 248.587 265.619 248.666 265.64C248.705 265.65 248.737 265.657 248.76 265.664C248.772 265.667 248.781 265.67 248.789 265.672C248.792 265.673 248.795 265.674 248.798 265.675L248.801 265.675L248.803 265.676C248.803 265.679 248.788 265.735 248.447 266.909L249.693 267.226L249.692 267.227L249.691 267.23C249.691 267.233 249.69 267.236 249.689 267.239C249.688 267.246 249.685 267.254 249.682 267.265C249.676 267.288 249.668 267.319 249.657 267.358C249.635 267.437 249.602 267.549 249.559 267.691C249.472 267.974 249.34 268.379 249.155 268.879C248.787 269.878 248.206 271.262 247.355 272.827C245.655 275.951 242.849 279.841 238.439 282.797C234.021 285.759 229.605 286.703 226.298 286.906C224.645 287.007 223.264 286.924 222.288 286.813C221.8 286.758 221.412 286.696 221.14 286.646C221.005 286.622 220.899 286.6 220.823 286.584C220.786 286.576 220.756 286.569 220.734 286.564C220.723 286.561 220.713 286.56 220.706 286.558C220.703 286.557 220.7 286.556 220.698 286.555L220.694 286.555H220.693L220.997 285.308L220.692 286.554L219.728 286.319L219.727 286.276L219.651 286.271L219.708 285.223ZM220.722 285.311L220.724 285.312H220.726L220.724 285.311H220.722ZM224.679 284.384C225.132 284.387 225.62 284.377 226.14 284.345C229.101 284.163 233.048 283.32 237.004 280.668C240.969 278.011 243.526 274.488 245.095 271.604C245.355 271.126 245.585 270.666 245.791 270.233L224.679 284.384ZM203.858 259.918C203.792 260.493 203.742 261.136 203.727 261.838C203.658 264.991 204.255 269.33 206.95 274.028C209.643 278.721 212.914 281.132 215.466 282.377C216.069 282.67 216.634 282.899 217.144 283.078L203.858 259.918ZM244.926 267.723C244.346 267.699 243.7 267.696 242.997 267.731C239.841 267.889 235.546 268.793 231.042 271.812C226.542 274.827 224.367 278.256 223.306 280.885C223.055 281.506 222.867 282.084 222.724 282.605L244.926 267.723ZM219.063 281.259C219.098 280.81 219.124 280.323 219.129 279.804C219.16 276.844 218.599 272.855 216.231 268.729C213.859 264.593 210.52 261.796 207.749 260.028C207.29 259.735 206.847 259.472 206.428 259.235L219.063 281.259ZM250 266.022L249.693 267.226L248.447 266.909L248.805 265.676L250 266.022ZM219.715 285.112C219.715 285.108 219.716 285.105 219.716 285.101C219.713 285.143 219.71 285.183 219.708 285.223L219.715 285.112Z" fill="#42382E"/>
<path d="M237.848 192.243L236.785 192.375C237.777 192.251 237.843 192.243 237.848 192.243L237.849 192.244V192.247C237.849 192.249 237.849 192.251 237.85 192.254C237.85 192.26 237.851 192.268 237.852 192.278C237.854 192.297 237.858 192.325 237.861 192.36C237.868 192.43 237.878 192.53 237.888 192.658C237.908 192.913 237.929 193.28 237.939 193.74C237.959 194.659 237.93 195.957 237.741 197.484C237.363 200.534 236.337 204.547 233.726 208.314C231.111 212.088 227.859 214.238 225.264 215.443C223.967 216.046 222.83 216.413 222.011 216.632C221.712 216.711 221.454 216.769 221.246 216.814L221.264 216.945L220.499 217.259L220.376 216.961C220.496 217.253 220.498 217.26 220.498 217.26H220.496L220.493 217.261C220.491 217.262 220.489 217.263 220.486 217.265C220.479 217.267 220.471 217.27 220.461 217.274C220.442 217.281 220.417 217.291 220.385 217.302C220.322 217.325 220.233 217.357 220.121 217.393C219.896 217.465 219.575 217.558 219.168 217.649C218.355 217.83 217.194 218.006 215.77 217.994C212.91 217.969 209.019 217.19 204.771 214.259C200.528 211.331 198.205 207.828 196.944 205.044C196.315 203.654 195.951 202.444 195.743 201.573C195.639 201.138 195.574 200.786 195.535 200.538C195.515 200.415 195.502 200.317 195.493 200.247C195.489 200.212 195.485 200.184 195.483 200.163L195.48 200.13V200.126L196.546 200.026C196.422 199.04 196.414 198.971 196.414 198.966L196.415 198.965H196.417C196.419 198.965 196.422 198.965 196.425 198.964C196.431 198.964 196.438 198.963 196.448 198.962C196.468 198.959 196.496 198.956 196.531 198.953C196.601 198.945 196.701 198.936 196.829 198.926C197.085 198.906 197.453 198.885 197.914 198.875C198.835 198.855 200.136 198.883 201.667 199.072C204.723 199.449 208.746 200.473 212.521 203.078C215.582 205.19 217.577 207.718 218.867 209.978C219.139 207.342 220.093 204.083 222.52 200.582C225.454 196.348 228.966 194.03 231.756 192.773C233.149 192.145 234.362 191.782 235.235 191.574C235.671 191.471 236.024 191.406 236.272 191.367C236.396 191.347 236.494 191.333 236.564 191.325C236.599 191.32 236.627 191.317 236.648 191.315L236.681 191.311H236.685C236.686 191.316 236.692 191.381 236.776 192.278L236.686 191.311L237.719 191.215L237.848 192.243ZM198.238 202.493C198.409 202.999 198.625 203.562 198.897 204.164C200.026 206.657 202.119 209.831 205.99 212.501C209.857 215.169 213.322 215.835 215.788 215.856C216.417 215.861 216.984 215.824 217.477 215.766L198.238 202.493ZM223.066 214.047C223.468 213.896 223.903 213.717 224.36 213.505C226.694 212.421 229.613 210.491 231.964 207.098C234.321 203.698 235.265 200.045 235.615 197.221C235.68 196.696 235.724 196.201 235.753 195.743L223.066 214.047ZM218.268 213.711C218.116 213.311 217.937 212.878 217.724 212.423C216.638 210.094 214.703 207.182 211.303 204.836C207.895 202.485 204.234 201.543 201.403 201.194C200.877 201.129 200.381 201.084 199.922 201.055L218.268 213.711ZM234.311 194.063C233.804 194.234 233.241 194.449 232.638 194.721C230.139 195.847 226.958 197.936 224.281 201.798C221.608 205.655 220.94 209.112 220.919 211.573C220.914 212.201 220.951 212.766 221.008 213.259L234.311 194.063ZM196.546 200.026L195.479 200.125L195.383 199.095L196.414 198.966L196.546 200.026Z" fill="#42382E"/>
<path d="M210.197 136.89L209.387 137.168C210.136 136.911 210.193 136.891 210.197 136.89L210.198 136.892L210.199 136.894C210.199 136.894 210.2 136.898 210.2 136.9C210.202 136.905 210.204 136.911 210.207 136.919C210.212 136.936 210.22 136.959 210.23 136.988C210.248 137.047 210.274 137.132 210.306 137.24C210.369 137.456 210.454 137.769 210.546 138.164C210.729 138.955 210.94 140.081 211.052 141.436C211.278 144.141 211.116 147.794 209.542 151.517C207.966 155.247 205.547 157.689 203.523 159.197C202.512 159.951 201.597 160.474 200.929 160.81C200.596 160.977 200.323 161.099 200.131 161.18C200.035 161.22 199.958 161.251 199.904 161.271C199.877 161.282 199.855 161.29 199.84 161.296C199.832 161.298 199.826 161.301 199.821 161.303C199.819 161.304 199.816 161.304 199.815 161.305L199.813 161.306C199.811 161.303 199.793 161.254 199.525 160.5C199.46 160.544 199.4 160.584 199.346 160.62L199.525 160.5L199.811 161.306L199.604 161.379L199.686 161.638L199.126 161.99L198.67 161.265C199.104 161.955 199.125 161.988 199.126 161.99L199.123 161.99L199.122 161.992C199.12 161.993 199.117 161.994 199.115 161.995C199.11 161.998 199.104 162.003 199.096 162.007C199.081 162.016 199.061 162.028 199.035 162.043C198.984 162.072 198.913 162.112 198.822 162.16C198.639 162.256 198.374 162.383 198.035 162.522C197.357 162.801 196.377 163.126 195.138 163.327C192.652 163.732 189.155 163.637 185.019 161.722C180.888 159.809 178.342 157.109 176.829 154.877C176.074 153.763 175.576 152.765 175.265 152.04C175.109 151.678 175 151.383 174.929 151.174C174.894 151.07 174.867 150.987 174.85 150.929C174.841 150.9 174.834 150.876 174.83 150.859C174.827 150.851 174.825 150.844 174.824 150.839C174.823 150.836 174.823 150.834 174.822 150.832L174.821 150.829L174.82 150.828C174.82 150.828 174.841 150.821 175.648 150.605C175.399 149.787 175.4 149.786 175.4 149.786L175.402 149.785C175.402 149.785 175.406 149.785 175.408 149.784C175.413 149.782 175.42 149.78 175.428 149.778C175.445 149.773 175.468 149.766 175.498 149.758C175.557 149.741 175.643 149.719 175.752 149.691C175.971 149.636 176.288 149.562 176.688 149.485C177.487 149.33 178.622 149.16 179.983 149.096C182.701 148.967 186.353 149.257 190.027 150.958C193.552 152.59 195.865 154.952 197.318 156.968C196.84 154.509 196.831 151.05 198.582 146.907C200.352 142.72 202.967 140.085 205.149 138.497C206.238 137.705 207.22 137.173 207.935 136.837C208.293 136.669 208.585 136.55 208.791 136.472C208.894 136.432 208.975 136.404 209.033 136.384C209.063 136.374 209.086 136.366 209.103 136.36C209.111 136.358 209.119 136.355 209.124 136.354C209.126 136.353 209.129 136.353 209.131 136.352L209.133 136.351C209.135 136.355 209.152 136.405 209.331 136.988L209.135 136.35L209.927 136.107L210.197 136.89ZM177.287 152.307C177.537 152.788 177.853 153.335 178.249 153.919C179.618 155.94 181.939 158.411 185.742 160.172C189.54 161.93 192.687 161.994 194.862 161.64C195.52 161.532 196.092 161.385 196.569 161.235L177.287 152.307ZM189.306 152.51C185.956 150.959 182.6 150.684 180.064 150.804C179.463 150.833 178.91 150.883 178.416 150.944L196.917 159.511C196.691 159.112 196.42 158.67 196.097 158.206C194.79 156.324 192.649 154.058 189.306 152.51ZM201.22 158.69C201.612 158.451 202.044 158.165 202.498 157.827C204.336 156.457 206.531 154.242 207.963 150.854C209.398 147.459 209.554 144.102 209.344 141.578C209.294 140.979 209.223 140.43 209.145 139.94L201.22 158.69ZM207.739 138.863C207.267 139.129 206.73 139.463 206.159 139.879C204.184 141.316 201.791 143.717 200.162 147.571C198.535 151.421 198.582 154.56 199.014 156.717C199.145 157.37 199.313 157.935 199.481 158.405L207.739 138.863ZM175.648 150.605L174.82 150.828L174.605 150.028L175.399 149.787L175.648 150.605Z" fill="#42382E"/>
<path d="M187.106 95.0034L187.107 95.0043V95.006C187.107 95.006 187.108 95.0084 187.108 95.0101C187.109 95.0136 187.111 95.0186 187.112 95.0243C187.116 95.0358 187.12 95.0518 187.126 95.0719C187.137 95.1127 187.153 95.171 187.172 95.2456C187.21 95.3952 187.26 95.6108 187.313 95.8828C187.418 96.4267 187.534 97.1997 187.578 98.1259C187.665 99.9744 187.466 102.461 186.301 104.962C185.133 107.468 183.422 109.075 182.005 110.054C181.297 110.543 180.659 110.877 180.195 111.09C179.963 111.197 179.773 111.273 179.64 111.324C179.573 111.349 179.52 111.368 179.482 111.381C179.463 111.387 179.448 111.393 179.437 111.396C179.432 111.398 179.427 111.399 179.424 111.401L179.419 111.401L179.418 111.402L179.224 110.791L179.416 111.403L178.943 111.551L178.921 111.516L178.776 111.583H178.774L178.767 111.587C178.764 111.588 178.759 111.59 178.753 111.593C178.742 111.598 178.727 111.605 178.709 111.613C178.671 111.628 178.618 111.649 178.551 111.674C178.418 111.723 178.227 111.787 177.985 111.852C177.5 111.983 176.807 112.118 175.95 112.147C174.229 112.206 171.868 111.839 169.235 110.186C166.606 108.534 165.117 106.486 164.286 104.843C163.871 104.023 163.621 103.304 163.473 102.786C163.4 102.526 163.351 102.317 163.321 102.169C163.306 102.095 163.295 102.037 163.288 101.995L163.278 101.93C163.277 101.928 163.278 101.925 163.278 101.925L163.277 101.923C163.277 101.923 163.29 101.92 163.914 101.835L163.277 101.921L163.193 101.307L163.807 101.202H163.809L163.813 101.202C163.817 101.201 163.822 101.2 163.827 101.199C163.839 101.197 163.856 101.195 163.877 101.192C163.919 101.185 163.979 101.177 164.056 101.168C164.209 101.15 164.43 101.127 164.707 101.109C165.261 101.073 166.044 101.057 166.97 101.131C168.819 101.278 171.266 101.791 173.605 103.26C175.534 104.471 176.81 105.97 177.644 107.314C177.561 105.744 177.812 103.767 178.862 101.513C180.171 98.7019 182.019 96.9686 183.547 95.9388C184.31 95.4246 184.993 95.0857 185.49 94.874C185.738 94.7681 185.94 94.6938 186.084 94.6452C186.155 94.6209 186.212 94.6031 186.253 94.5909C186.273 94.5848 186.29 94.5801 186.301 94.5767C186.307 94.575 186.313 94.5736 186.316 94.5725C186.318 94.5721 186.321 94.5709 186.321 94.5709H186.323C186.323 94.5709 186.324 94.5704 186.459 95.0719L186.324 94.57L186.925 94.4089L187.106 95.0034ZM164.99 103.269C165.107 103.571 165.253 103.907 165.434 104.266C166.178 105.737 167.521 107.593 169.92 109.1C172.317 110.605 174.42 110.916 175.906 110.865C176.287 110.852 176.629 110.814 176.926 110.767L164.99 103.269ZM177.343 109.513C177.241 109.275 177.123 109.016 176.983 108.746C176.269 107.373 175.029 105.67 172.921 104.346C170.809 103.019 168.58 102.547 166.868 102.41C166.547 102.384 166.245 102.372 165.966 102.367L177.343 109.513ZM180.556 109.451C180.78 109.32 181.023 109.172 181.273 108.999C182.549 108.118 184.085 106.675 185.135 104.421C186.186 102.163 186.374 99.8983 186.293 98.186C186.278 97.8658 186.251 97.5659 186.221 97.2899L180.556 109.451ZM185.201 96.4365C184.915 96.5902 184.6 96.7773 184.267 97.0018C182.898 97.9245 181.223 99.4883 180.028 102.053C178.834 104.616 178.791 106.737 179.029 108.201C179.091 108.576 179.171 108.91 179.256 109.198L185.201 96.4365Z" fill="#42382E"/>
<path d="M167.704 44.4673C167.41 49.0096 167.635 53.58 167.989 58.1161C171.631 96.8014 186.112 133.528 203.911 167.798C224.334 206.184 232.288 252.523 219.294 294.978C217.892 299.448 216.355 303.764 214.246 308.075C213.984 308.578 213.533 308.956 212.99 309.123C212.447 309.29 211.856 309.233 211.35 308.966C210.844 308.699 210.463 308.244 210.296 307.702C210.129 307.16 210.187 306.576 210.457 306.077C212.37 302.321 214.012 298.009 215.414 293.748C228.678 252.767 221.751 207.064 202.102 168.725C184.761 134.029 170.814 96.9293 167.776 58.1312C167.492 53.5836 167.339 49.0054 167.704 44.4673Z" fill="#42382E"/>
</svg>
