<svg width="600" height="600" viewBox="0 0 600 600" fill="none" xmlns="http://www.w3.org/2000/svg">
<path d="M168.463 459.128V507H159.887L143.823 470.968V507H139.535V462.904C137.189 463.715 135.354 465.016 134.031 466.808C132.709 468.557 132.047 470.861 132.047 473.72C132.047 475.043 132.154 476.173 132.367 477.112C132.581 478.008 132.837 478.776 133.135 479.416C133.434 480.013 133.754 480.504 134.095 480.888C134.479 481.272 134.821 481.592 135.119 481.848C132.431 481.848 130.447 481.208 129.167 479.928C127.93 478.605 127.311 476.493 127.311 473.592C127.311 471.843 127.653 470.115 128.335 468.408C129.061 466.659 130.063 465.101 131.343 463.736C132.623 462.328 134.159 461.197 135.951 460.344C137.743 459.448 139.727 459 141.903 459C142.629 459 143.375 459.064 144.143 459.192C144.911 459.32 145.658 459.555 146.383 459.896L164.175 500.984V459.128H168.463ZM195.982 475V496.76C195.982 497.187 196.004 497.72 196.046 498.36C196.089 499 196.196 499.64 196.366 500.28C196.58 500.877 196.878 501.411 197.262 501.88C197.646 502.307 198.18 502.52 198.862 502.52C200.953 502.52 202.489 500.195 203.47 495.544H205.838C205.369 498.232 204.772 500.365 204.046 501.944C203.321 503.48 202.553 504.653 201.742 505.464C200.932 506.275 200.1 506.787 199.246 507C198.393 507.256 197.625 507.384 196.942 507.384C195.961 507.384 195.108 507.213 194.382 506.872C193.7 506.531 193.102 506.083 192.59 505.528C192.121 504.973 191.737 504.333 191.438 503.608C191.14 502.883 190.905 502.136 190.734 501.368C189.924 503.459 188.857 504.995 187.534 505.976C186.212 506.915 184.825 507.384 183.374 507.384C182.137 507.384 180.964 507.213 179.854 506.872C178.745 506.531 177.785 505.976 176.974 505.208C176.164 504.397 175.524 503.373 175.054 502.136C174.585 500.856 174.35 499.299 174.35 497.464V475H180.75V496.76C180.75 498.851 181.113 500.344 181.838 501.24C182.564 502.093 183.481 502.52 184.59 502.52C185.188 502.52 185.785 502.371 186.382 502.072C186.98 501.731 187.513 501.261 187.982 500.664C188.452 500.067 188.836 499.341 189.134 498.488C189.433 497.635 189.582 496.653 189.582 495.544V475H195.982ZM227.029 475V496.76C227.029 497.187 227.05 497.72 227.093 498.36C227.135 499 227.242 499.64 227.413 500.28C227.626 500.877 227.925 501.411 228.309 501.88C228.693 502.307 229.226 502.52 229.909 502.52C231.999 502.52 233.535 500.195 234.517 495.544H236.885C236.415 498.232 235.818 500.365 235.093 501.944C234.367 503.48 233.599 504.653 232.789 505.464C231.978 506.275 231.146 506.787 230.293 507C229.439 507.256 228.671 507.384 227.989 507.384C227.007 507.384 226.154 507.213 225.429 506.872C224.746 506.531 224.149 506.083 223.637 505.528C223.167 504.973 222.783 504.333 222.485 503.608C222.186 502.883 221.951 502.115 221.781 501.304C221.141 502.968 220.095 504.397 218.645 505.592C217.237 506.787 215.509 507.384 213.461 507.384C212.181 507.384 210.879 507.128 209.557 506.616C208.277 506.104 207.103 505.272 206.037 504.12C205.013 502.925 204.159 501.411 203.477 499.576C202.837 497.699 202.517 495.416 202.517 492.728C202.517 490.765 202.73 488.717 203.157 486.584C203.626 484.451 204.351 482.509 205.333 480.76C206.314 479.011 207.573 477.56 209.109 476.408C210.645 475.256 212.501 474.68 214.677 474.68C215.189 474.68 215.722 474.744 216.277 474.872C216.874 474.957 217.429 475.128 217.941 475.384C218.495 475.64 219.007 476.003 219.477 476.472C219.946 476.899 220.33 477.432 220.629 478.072V475H227.029ZM215.061 502.52C215.701 502.52 216.341 502.349 216.981 502.008C217.663 501.624 218.261 501.133 218.773 500.536C219.327 499.896 219.775 499.149 220.117 498.296C220.458 497.443 220.629 496.525 220.629 495.544V480.952C220.33 480.269 219.861 479.651 219.221 479.096C218.623 478.499 217.834 478.2 216.853 478.2C215.487 478.2 214.314 478.669 213.333 479.608C212.351 480.504 211.562 481.656 210.965 483.064C210.367 484.429 209.919 485.944 209.621 487.608C209.365 489.229 209.237 490.787 209.237 492.28C209.237 495.949 209.727 498.573 210.709 500.152C211.733 501.731 213.183 502.52 215.061 502.52ZM240.875 475V479.864C241.515 478.712 242.155 477.795 242.795 477.112C243.478 476.387 244.161 475.853 244.843 475.512C245.526 475.171 246.166 474.957 246.763 474.872C247.403 474.744 248.001 474.68 248.555 474.68C250.475 474.68 252.011 475.043 253.163 475.768C254.358 476.493 255.254 477.432 255.851 478.584C256.449 479.693 256.833 480.931 257.003 482.296C257.217 483.619 257.323 484.899 257.323 486.136C257.323 486.904 257.302 487.757 257.259 488.696C257.217 489.592 257.174 490.531 257.131 491.512C257.089 492.451 257.046 493.411 257.003 494.392C256.961 495.331 256.939 496.205 256.939 497.016C256.939 497.357 256.961 497.848 257.003 498.488C257.046 499.085 257.153 499.683 257.323 500.28C257.494 500.877 257.771 501.411 258.155 501.88C258.539 502.307 259.094 502.52 259.819 502.52C260.801 502.52 261.675 501.965 262.443 500.856C263.254 499.747 263.915 497.976 264.427 495.544H266.795C266.326 498.232 265.729 500.365 265.003 501.944C264.278 503.48 263.51 504.653 262.699 505.464C261.889 506.275 261.078 506.787 260.267 507C259.457 507.256 258.71 507.384 258.027 507.384C256.662 507.384 255.51 507.128 254.571 506.616C253.633 506.061 252.865 505.336 252.267 504.44C251.67 503.544 251.222 502.499 250.923 501.304C250.667 500.109 250.539 498.872 250.539 497.592C250.539 497.208 250.539 496.504 250.539 495.48C250.582 494.413 250.603 493.283 250.603 492.088C250.646 490.893 250.667 489.763 250.667 488.696C250.71 487.629 250.731 486.883 250.731 486.456C250.731 485.091 250.625 483.96 250.411 483.064C250.198 482.168 249.899 481.464 249.515 480.952C249.131 480.44 248.683 480.077 248.171 479.864C247.702 479.651 247.19 479.544 246.635 479.544C245.313 479.544 244.161 480.077 243.179 481.144C242.241 482.211 241.473 484.003 240.875 486.52V507H234.475V475H240.875ZM278.878 484.792C279.22 484.493 279.476 484.024 279.646 483.384C279.86 482.701 279.966 482.061 279.966 481.464C279.966 480.483 279.646 479.672 279.006 479.032C278.409 478.392 277.556 478.072 276.446 478.072C275.294 478.072 274.334 478.499 273.566 479.352C272.798 480.205 272.18 481.293 271.71 482.616C271.241 483.896 270.9 485.347 270.686 486.968C270.516 488.547 270.43 490.104 270.43 491.64C270.43 493.901 270.622 495.736 271.006 497.144C271.433 498.552 271.988 499.661 272.67 500.472C273.353 501.24 274.142 501.773 275.038 502.072C275.977 502.371 276.958 502.52 277.982 502.52C280.244 502.52 282.142 501.965 283.678 500.856C285.257 499.704 286.601 497.933 287.71 495.544H289.886C289.374 497.123 288.649 498.637 287.71 500.088C286.772 501.496 285.684 502.755 284.446 503.864C283.209 504.931 281.865 505.784 280.414 506.424C278.964 507.064 277.449 507.384 275.87 507.384C274.377 507.384 272.905 507.128 271.454 506.616C270.004 506.104 268.702 505.272 267.55 504.12C266.398 502.925 265.46 501.389 264.734 499.512C264.009 497.592 263.646 495.245 263.646 492.472C263.646 490.68 263.796 488.76 264.094 486.712C264.436 484.621 265.033 482.701 265.886 480.952C266.782 479.16 267.998 477.667 269.534 476.472C271.07 475.277 273.054 474.68 275.486 474.68C278.174 474.68 280.222 475.341 281.63 476.664C283.038 477.944 283.742 479.843 283.742 482.36C283.742 483.427 283.529 484.323 283.102 485.048C282.718 485.773 282.1 486.136 281.246 486.136C280.308 486.136 279.518 485.688 278.878 484.792ZM307.695 483C307.695 485.987 306.457 488.483 303.983 490.488C301.551 492.493 298.159 493.731 293.807 494.2C293.977 495.907 294.276 497.293 294.703 498.36C295.172 499.427 295.727 500.28 296.367 500.92C297.007 501.517 297.732 501.944 298.543 502.2C299.396 502.413 300.271 502.52 301.167 502.52C303.215 502.52 305.135 501.987 306.927 500.92C308.719 499.853 310.169 498.061 311.279 495.544H313.327C312.772 497.123 312.004 498.637 311.023 500.088C310.041 501.496 308.889 502.755 307.567 503.864C306.244 504.931 304.815 505.784 303.279 506.424C301.743 507.064 300.164 507.384 298.543 507.384C297.049 507.384 295.599 507.128 294.191 506.616C292.825 506.104 291.609 505.272 290.543 504.12C289.476 502.925 288.601 501.389 287.919 499.512C287.279 497.635 286.959 495.331 286.959 492.6C286.959 490.808 287.151 488.867 287.535 486.776C287.961 484.685 288.644 482.744 289.583 480.952C290.564 479.16 291.823 477.667 293.359 476.472C294.937 475.277 296.879 474.68 299.183 474.68C300.249 474.68 301.273 474.808 302.255 475.064C303.279 475.277 304.196 475.704 305.007 476.344C305.817 476.941 306.457 477.773 306.927 478.84C307.439 479.907 307.695 481.293 307.695 483ZM293.743 491.704C296.772 491.235 299.161 490.168 300.911 488.504C302.703 486.84 303.599 484.792 303.599 482.36C303.599 480.739 303.321 479.587 302.767 478.904C302.212 478.179 301.423 477.816 300.399 477.816C299.289 477.816 298.308 478.243 297.455 479.096C296.644 479.949 295.961 481.059 295.407 482.424C294.852 483.747 294.425 485.24 294.127 486.904C293.871 488.525 293.743 490.125 293.743 491.704ZM323.961 473.016C324.985 477.112 325.839 480.461 326.521 483.064C327.204 485.624 327.737 487.8 328.121 489.592C328.548 491.341 328.847 492.899 329.017 494.264C329.188 495.629 329.273 497.144 329.273 498.808C329.273 500.387 328.932 501.731 328.249 502.84C327.567 503.907 326.713 504.781 325.689 505.464C324.665 506.147 323.577 506.637 322.425 506.936C321.273 507.235 320.249 507.384 319.353 507.384C317.476 507.384 315.919 507.085 314.681 506.488C313.487 505.891 312.527 505.144 311.801 504.248C311.076 503.309 310.564 502.285 310.265 501.176C309.967 500.024 309.817 498.936 309.817 497.912C309.817 496.803 310.031 495.843 310.457 495.032C310.927 494.179 311.481 493.581 312.121 493.24C313.231 490.04 314.319 486.883 315.385 483.768C316.452 480.611 317.156 477.453 317.497 474.296L323.961 473.016ZM322.489 498.104C322.489 496.781 322.404 495.608 322.233 494.584C322.105 493.56 321.892 492.429 321.593 491.192C321.295 489.955 320.911 488.461 320.441 486.712C320.015 484.92 319.503 482.637 318.905 479.864C318.649 482.253 318.116 484.536 317.305 486.712C316.537 488.888 315.833 491.128 315.193 493.432C315.577 493.688 315.897 494.051 316.153 494.52C316.452 494.947 316.601 495.523 316.601 496.248C316.601 497.059 316.388 497.677 315.961 498.104C315.535 498.531 315.065 498.744 314.553 498.744C313.871 498.744 313.295 498.445 312.825 497.848C313.167 499.341 313.764 500.515 314.617 501.368C315.471 502.179 316.601 502.584 318.009 502.584C319.375 502.584 320.463 502.243 321.273 501.56C322.084 500.835 322.489 499.683 322.489 498.104ZM385.424 480.568C385.467 480.696 385.488 480.845 385.488 481.016C385.488 481.144 385.488 481.272 385.488 481.4C385.488 482.168 385.275 482.957 384.848 483.768C384.422 484.536 383.824 485.24 383.056 485.88C382.331 486.52 381.456 487.075 380.432 487.544C379.408 487.971 378.278 488.227 377.04 488.312C376.955 491.384 376.55 494.157 375.824 496.632C375.099 499.064 374.054 501.133 372.688 502.84C371.323 504.547 369.659 505.869 367.696 506.808C365.734 507.704 363.472 508.152 360.912 508.152C358.352 508.152 356.176 507.725 354.384 506.872C352.592 505.976 351.142 504.845 350.032 503.48C348.966 502.115 348.176 500.579 347.664 498.872C347.195 497.123 346.96 495.395 346.96 493.688C346.96 490.317 347.75 487.523 349.328 485.304C350.95 483.043 353.04 481.379 355.6 480.312C353.552 479.032 352.08 477.56 351.184 475.896C350.288 474.232 349.84 472.483 349.84 470.648C349.84 469.24 350.096 467.832 350.608 466.424C351.12 465.016 351.91 463.757 352.976 462.648C354.043 461.539 355.344 460.643 356.88 459.96C358.459 459.235 360.315 458.872 362.448 458.872C363.6 458.872 364.752 459 365.904 459.256C367.099 459.512 368.166 459.96 369.104 460.6C370.043 461.197 370.79 462.029 371.344 463.096C371.942 464.12 372.24 465.421 372.24 467C372.24 468.621 371.92 469.901 371.28 470.84C370.64 471.779 369.787 472.248 368.72 472.248C367.568 472.248 366.438 471.672 365.328 470.52C365.926 470.264 366.502 469.752 367.056 468.984C367.654 468.173 367.952 467.149 367.952 465.912C367.952 465.101 367.803 464.419 367.504 463.864C367.206 463.267 366.8 462.776 366.288 462.392C365.819 462.008 365.286 461.731 364.688 461.56C364.091 461.389 363.472 461.304 362.832 461.304C361.68 461.304 360.656 461.56 359.76 462.072C358.864 462.584 358.118 463.267 357.52 464.12C356.923 464.931 356.454 465.869 356.112 466.936C355.814 468.003 355.664 469.112 355.664 470.264C355.664 470.776 355.728 471.501 355.856 472.44C355.984 473.379 356.283 474.36 356.752 475.384C357.222 476.408 357.926 477.368 358.864 478.264C359.846 479.16 361.168 479.821 362.832 480.248C360.016 480.888 357.84 482.339 356.304 484.6C354.811 486.819 354.064 489.464 354.064 492.536C354.064 495.608 354.875 498.147 356.496 500.152C358.16 502.115 360.72 503.096 364.176 503.096C366.267 503.096 367.995 502.712 369.36 501.944C370.768 501.176 371.878 500.131 372.688 498.808C373.542 497.443 374.139 495.864 374.48 494.072C374.864 492.28 375.099 490.36 375.184 488.312C374.374 488.227 373.563 488.141 372.752 488.056C371.942 487.971 371.174 487.928 370.448 487.928C367.632 487.928 365.819 488.888 365.008 490.808L364.56 490.744C364.688 488.44 365.606 486.584 367.312 485.176C369.062 483.725 371.472 483 374.544 483C375.526 483 376.4 483.064 377.168 483.192C377.936 483.277 378.704 483.32 379.472 483.32C380.71 483.32 381.862 483.107 382.928 482.68C383.995 482.253 384.699 481.549 385.04 480.568H385.424ZM436.651 496.12C435.542 500.003 433.494 502.968 430.507 505.016C427.521 507.021 424.001 508.024 419.947 508.024C414.443 508.024 410.155 506.083 407.083 502.2C404.054 498.317 402.539 492.451 402.539 484.6C402.539 481.656 402.795 478.669 403.307 475.64C403.819 472.611 404.715 469.88 405.995 467.448C407.275 464.973 408.982 462.947 411.115 461.368C413.291 459.789 416.022 459 419.307 459C420.929 459 422.465 459.213 423.915 459.64C425.366 460.067 426.625 460.707 427.691 461.56C428.801 462.371 429.675 463.395 430.315 464.632C430.955 465.869 431.275 467.32 431.275 468.984C431.275 470.349 431.019 471.437 430.507 472.248C429.995 473.059 429.121 473.464 427.883 473.464C427.286 473.464 426.71 473.379 426.155 473.208C425.643 472.995 425.217 472.696 424.875 472.312C425.259 472.013 425.601 471.395 425.899 470.456C426.241 469.517 426.411 468.451 426.411 467.256C426.411 465.208 425.921 463.715 424.939 462.776C423.958 461.795 422.657 461.304 421.035 461.304C419.115 461.304 417.451 461.944 416.043 463.224C414.678 464.461 413.547 466.125 412.651 468.216C411.755 470.307 411.094 472.675 410.667 475.32C410.283 477.965 410.091 480.696 410.091 483.512C410.091 487.011 410.39 489.997 410.987 492.472C411.585 494.947 412.459 496.973 413.611 498.552C414.763 500.131 416.171 501.304 417.835 502.072C419.542 502.797 421.483 503.16 423.659 503.16C426.433 503.16 428.737 502.563 430.571 501.368C432.406 500.131 433.899 498.168 435.051 495.48L436.651 496.12ZM446.5 474.68C447.993 474.68 449.294 474.893 450.404 475.32C451.513 475.747 452.452 476.344 453.22 477.112C454.03 477.837 454.67 478.733 455.14 479.8C455.652 480.824 456.036 481.933 456.292 483.128C457.486 483.128 458.34 482.765 458.852 482.04C459.364 481.272 459.726 480.568 459.94 479.928H461.796C461.454 481.336 460.878 482.787 460.068 484.28C459.3 485.731 458.212 486.819 456.804 487.544C456.889 488.056 456.932 488.568 456.932 489.08C456.932 489.549 456.932 490.04 456.932 490.552C456.932 495.8 455.972 499.917 454.052 502.904C452.132 505.891 449.444 507.384 445.988 507.384C444.58 507.384 443.15 507.128 441.7 506.616C440.292 506.104 439.012 505.251 437.86 504.056C436.708 502.861 435.769 501.325 435.044 499.448C434.361 497.571 434.02 495.245 434.02 492.472C434.02 490.595 434.212 488.611 434.596 486.52C435.022 484.429 435.705 482.509 436.644 480.76C437.625 479.011 438.905 477.56 440.484 476.408C442.105 475.256 444.11 474.68 446.5 474.68ZM447.14 502.52C449.401 502.52 451.065 501.411 452.132 499.192C453.198 496.931 453.732 493.752 453.732 489.656C453.732 489.443 453.71 489.229 453.668 489.016C453.668 488.76 453.668 488.525 453.668 488.312C452.473 488.312 451.598 487.992 451.044 487.352C450.489 486.669 450.212 485.709 450.212 484.472C450.212 483.619 450.425 482.957 450.852 482.488C451.278 481.976 451.854 481.677 452.58 481.592C452.068 480.355 451.428 479.48 450.66 478.968C449.892 478.456 449.06 478.2 448.164 478.2C446.841 478.2 445.71 478.648 444.772 479.544C443.876 480.397 443.129 481.507 442.532 482.872C441.977 484.237 441.572 485.752 441.316 487.416C441.06 489.037 440.932 490.637 440.932 492.216C440.932 494.307 441.124 496.013 441.508 497.336C441.892 498.659 442.382 499.704 442.98 500.472C443.577 501.24 444.238 501.773 444.964 502.072C445.689 502.371 446.414 502.52 447.14 502.52ZM464.026 503.096C464.026 501.944 464.431 500.941 465.242 500.088C466.052 499.235 467.055 498.808 468.25 498.808C469.402 498.808 470.404 499.235 471.258 500.088C472.111 500.941 472.538 501.944 472.538 503.096C472.538 504.291 472.111 505.293 471.258 506.104C470.404 506.915 469.402 507.32 468.25 507.32C467.055 507.32 466.052 506.915 465.242 506.104C464.431 505.293 464.026 504.291 464.026 503.096Z" fill="black"/>
<path d="M332.815 78.4773C328.661 87.9086 323.752 97.2872 319.87 110.833C315.99 124.371 313.137 142.075 313.137 168.095C313.137 194.037 324.446 218.75 335.811 243.468C347.159 268.147 358.564 292.835 358.564 318.6C358.564 351.827 346.839 374.491 332.321 391.949C337.478 374.696 339.681 355.204 335.412 336.037C330.966 316.075 322.441 302.339 313.829 289.923C305.21 277.497 296.546 266.442 291.689 251.765C281.946 222.328 282.539 202.025 286.553 187.018L286.969 185.459L285.834 186.607C272.835 199.749 260.808 222.806 253.423 249.241C246.035 275.683 243.275 305.562 248.863 332.369C257.497 373.78 279.73 405.196 296.32 423.854C279.548 411.756 260.295 398.232 245.082 377.752C229.381 356.616 217.998 328.092 217.998 286.104C217.998 237.679 236.825 192.846 260.495 156.531C284.164 120.217 312.698 92.3872 332.167 77.962L333.465 77L332.815 78.4773Z" fill="black"/>
<path d="M225.712 93.2477C225.712 93.2477 226.437 107.521 232.194 113.533C237.337 118.904 249.711 121.04 249.711 121.04C249.711 121.04 237.337 123.175 232.194 128.546C226.437 134.558 225.712 148.832 225.712 148.832C225.712 148.832 224.987 134.558 219.23 128.546C214.087 123.175 201.713 121.04 201.713 121.04C201.713 121.04 214.087 118.904 219.23 113.533C224.987 107.521 225.712 93.2477 225.712 93.2477Z" fill="black"/>
<path d="M368.849 405.374C368.849 405.374 369.348 415.037 373.247 419.106C376.737 422.748 385.134 424.187 385.134 424.187C385.134 424.187 376.737 425.626 373.247 429.268C369.348 433.337 368.849 443 368.849 443C368.849 443 368.35 433.337 364.451 429.268C360.961 425.626 352.564 424.187 352.564 424.187C352.564 424.187 360.961 422.748 364.451 419.106C368.35 415.037 368.849 405.374 368.849 405.374Z" fill="black"/>
<path d="M188.857 306.178C188.857 306.178 189.233 313.862 192.329 317.101C195.084 319.982 201.713 321.143 201.713 321.143C201.713 321.143 195.084 322.303 192.329 325.184C189.233 328.423 188.857 336.107 188.857 336.107C188.857 336.107 188.48 328.423 185.384 325.184C182.629 322.303 176 321.143 176 321.143C176 321.143 182.629 319.982 185.384 317.101C188.48 313.862 188.857 306.178 188.857 306.178Z" fill="black"/>
<path d="M395.708 362.223C395.65 363.271 395.65 363.271 395.65 363.271L395.648 363.271H395.644C395.641 363.27 395.638 363.27 395.634 363.27C395.626 363.269 395.616 363.269 395.604 363.268C395.58 363.266 395.548 363.263 395.509 363.26C395.431 363.252 395.322 363.241 395.186 363.223C394.914 363.186 394.532 363.123 394.061 363.015C393.119 362.799 391.819 362.404 390.337 361.681C387.361 360.23 383.688 357.478 380.719 352.302C377.753 347.133 377.08 342.317 377.157 338.782C377.195 337.017 377.421 335.571 377.64 334.558C377.749 334.052 377.857 333.652 377.94 333.373C377.982 333.234 378.016 333.124 378.042 333.047C378.055 333.008 378.066 332.977 378.074 332.955L378.087 332.918L378.088 332.914L378.089 332.913C378.093 332.914 378.163 332.939 379.295 333.356L378.089 332.911L378.52 331.747L379.701 332.138L379.295 333.356C379.682 332.194 379.701 332.141 379.702 332.139L379.706 332.14C379.708 332.141 379.711 332.142 379.715 332.143C379.721 332.145 379.73 332.149 379.74 332.152C379.762 332.16 379.793 332.17 379.832 332.184C379.909 332.212 380.019 332.252 380.157 332.305C380.435 332.412 380.83 332.573 381.316 332.792C382.288 333.231 383.631 333.907 385.134 334.866C388.136 336.782 391.824 339.854 394.463 344.454C396.72 348.388 397.505 352.214 397.666 355.306C399.075 352.57 401.488 349.444 405.608 346.682C410.563 343.361 415.329 342.345 418.869 342.169C420.636 342.08 422.097 342.201 423.126 342.346C423.64 342.419 424.048 342.499 424.333 342.561C424.475 342.592 424.587 342.619 424.666 342.64C424.705 342.65 424.737 342.657 424.76 342.664C424.772 342.667 424.781 342.67 424.789 342.672C424.792 342.673 424.795 342.674 424.798 342.675L424.801 342.675L424.803 342.676C424.803 342.679 424.788 342.735 424.447 343.909L425.693 344.226L425.692 344.227L425.691 344.23C425.691 344.233 425.69 344.235 425.689 344.239C425.688 344.246 425.685 344.254 425.682 344.265C425.676 344.288 425.668 344.319 425.657 344.358C425.635 344.437 425.602 344.549 425.559 344.691C425.472 344.974 425.34 345.379 425.155 345.879C424.787 346.878 424.206 348.262 423.355 349.827C421.655 352.951 418.849 356.841 414.439 359.797C410.021 362.759 405.605 363.703 402.298 363.906C400.645 364.007 399.264 363.924 398.288 363.813C397.8 363.758 397.412 363.696 397.14 363.646C397.005 363.622 396.899 363.6 396.823 363.584C396.786 363.576 396.756 363.569 396.734 363.564C396.723 363.561 396.713 363.56 396.706 363.558C396.703 363.557 396.7 363.556 396.698 363.555L396.694 363.555H396.693L396.997 362.308L396.692 363.554L395.728 363.319L395.727 363.276L395.651 363.271L395.708 362.223ZM396.722 362.311L396.724 362.312H396.726L396.724 362.311H396.722ZM400.679 361.384C401.132 361.387 401.62 361.377 402.14 361.345C405.101 361.163 409.048 360.32 413.004 357.668C416.969 355.011 419.526 351.488 421.095 348.604C421.355 348.126 421.585 347.666 421.791 347.233L400.679 361.384ZM379.858 336.918C379.792 337.493 379.742 338.136 379.727 338.838C379.658 341.991 380.255 346.33 382.95 351.028C385.643 355.721 388.914 358.132 391.466 359.377C392.069 359.67 392.634 359.899 393.144 360.078L379.858 336.918ZM420.926 344.723C420.346 344.699 419.7 344.696 418.998 344.731C415.841 344.889 411.546 345.793 407.042 348.812C402.542 351.827 400.367 355.256 399.306 357.885C399.055 358.506 398.867 359.084 398.724 359.605L420.926 344.723ZM395.063 358.259C395.098 357.81 395.124 357.323 395.129 356.804C395.16 353.844 394.599 349.855 392.231 345.729C389.859 341.593 386.52 338.796 383.749 337.028C383.29 336.735 382.847 336.472 382.428 336.235L395.063 358.259ZM426 343.022L425.693 344.226L424.447 343.909L424.805 342.676L426 343.022ZM395.715 362.112C395.715 362.108 395.716 362.105 395.716 362.101C395.713 362.143 395.71 362.183 395.708 362.223L395.715 362.112Z" fill="black"/>
<path d="M413.848 269.243L412.785 269.375C413.777 269.251 413.843 269.243 413.848 269.243L413.849 269.244V269.247C413.849 269.249 413.849 269.251 413.85 269.254C413.85 269.26 413.851 269.268 413.852 269.278C413.854 269.297 413.858 269.325 413.861 269.36C413.868 269.43 413.878 269.53 413.888 269.658C413.908 269.913 413.929 270.28 413.939 270.74C413.959 271.659 413.93 272.957 413.741 274.484C413.363 277.534 412.337 281.547 409.726 285.314C407.111 289.088 403.859 291.238 401.264 292.443C399.967 293.046 398.83 293.413 398.011 293.632C397.712 293.711 397.454 293.769 397.246 293.814L397.264 293.945L396.499 294.259L396.376 293.961C396.496 294.253 396.498 294.26 396.498 294.26H396.496L396.493 294.261C396.491 294.262 396.489 294.263 396.486 294.265C396.479 294.267 396.471 294.27 396.461 294.274C396.442 294.281 396.417 294.291 396.385 294.302C396.322 294.325 396.233 294.357 396.121 294.393C395.896 294.466 395.575 294.558 395.168 294.649C394.355 294.83 393.194 295.006 391.77 294.994C388.91 294.969 385.019 294.19 380.771 291.259C376.528 288.331 374.205 284.828 372.944 282.044C372.315 280.654 371.951 279.444 371.743 278.573C371.639 278.138 371.574 277.786 371.535 277.538C371.515 277.415 371.502 277.317 371.493 277.247C371.489 277.212 371.485 277.184 371.483 277.163L371.48 277.13V277.126L372.546 277.026C372.422 276.04 372.414 275.971 372.414 275.966L372.415 275.965H372.417C372.419 275.965 372.422 275.965 372.425 275.964C372.431 275.964 372.438 275.963 372.448 275.962C372.468 275.959 372.496 275.956 372.531 275.953C372.601 275.945 372.701 275.936 372.829 275.926C373.085 275.906 373.453 275.885 373.914 275.875C374.835 275.855 376.136 275.883 377.667 276.072C380.723 276.449 384.746 277.473 388.521 280.078C391.582 282.19 393.577 284.718 394.867 286.978C395.139 284.342 396.093 281.083 398.52 277.582C401.454 273.348 404.966 271.03 407.756 269.773C409.149 269.145 410.362 268.782 411.235 268.574C411.671 268.471 412.024 268.406 412.272 268.367C412.396 268.347 412.494 268.333 412.564 268.325C412.599 268.32 412.627 268.317 412.648 268.315L412.681 268.311H412.685C412.686 268.316 412.692 268.381 412.776 269.278L412.686 268.311L413.719 268.215L413.848 269.243ZM374.238 279.493C374.409 279.999 374.625 280.562 374.897 281.164C376.026 283.657 378.119 286.831 381.99 289.501C385.857 292.169 389.322 292.835 391.788 292.856C392.417 292.861 392.984 292.824 393.477 292.766L374.238 279.493ZM399.066 291.047C399.468 290.896 399.903 290.717 400.36 290.505C402.694 289.421 405.613 287.491 407.964 284.098C410.321 280.698 411.265 277.045 411.615 274.221C411.68 273.696 411.724 273.201 411.753 272.743L399.066 291.047ZM394.268 290.711C394.116 290.311 393.937 289.878 393.724 289.423C392.638 287.094 390.703 284.182 387.303 281.836C383.895 279.485 380.234 278.543 377.403 278.194C376.877 278.129 376.381 278.084 375.922 278.055L394.268 290.711ZM410.311 271.063C409.804 271.234 409.241 271.449 408.638 271.721C406.139 272.847 402.958 274.936 400.281 278.798C397.608 282.655 396.94 286.112 396.919 288.573C396.914 289.201 396.951 289.766 397.008 290.259L410.311 271.063ZM372.546 277.026L371.479 277.125L371.383 276.095L372.414 275.966L372.546 277.026Z" fill="black"/>
<path d="M386.197 213.89L385.387 214.168C386.136 213.911 386.193 213.891 386.197 213.89L386.198 213.892L386.199 213.894C386.199 213.894 386.2 213.898 386.2 213.9C386.202 213.905 386.204 213.911 386.207 213.919C386.212 213.935 386.22 213.959 386.23 213.988C386.248 214.047 386.274 214.132 386.306 214.24C386.369 214.456 386.454 214.769 386.546 215.164C386.729 215.955 386.94 217.081 387.052 218.436C387.278 221.141 387.116 224.794 385.542 228.517C383.966 232.247 381.547 234.689 379.523 236.197C378.512 236.951 377.597 237.474 376.929 237.81C376.596 237.977 376.323 238.099 376.131 238.18C376.035 238.22 375.958 238.251 375.904 238.271C375.877 238.282 375.855 238.29 375.84 238.296C375.832 238.298 375.826 238.301 375.821 238.303C375.819 238.304 375.816 238.304 375.815 238.305L375.813 238.306C375.811 238.303 375.793 238.254 375.525 237.5C375.46 237.544 375.4 237.584 375.346 237.62L375.525 237.5L375.811 238.306L375.604 238.379L375.686 238.638L375.126 238.99L374.67 238.265C375.104 238.955 375.125 238.988 375.126 238.99L375.123 238.99L375.122 238.992C375.12 238.993 375.117 238.994 375.115 238.995C375.11 238.998 375.104 239.003 375.096 239.007C375.081 239.016 375.061 239.028 375.035 239.043C374.985 239.072 374.913 239.112 374.822 239.16C374.639 239.256 374.374 239.383 374.035 239.522C373.357 239.801 372.377 240.126 371.138 240.327C368.652 240.732 365.155 240.637 361.019 238.722C356.888 236.809 354.342 234.109 352.829 231.877C352.074 230.763 351.576 229.765 351.265 229.04C351.109 228.678 351 228.383 350.929 228.174C350.894 228.07 350.867 227.987 350.85 227.929C350.841 227.9 350.834 227.876 350.83 227.859C350.827 227.851 350.825 227.844 350.824 227.839C350.823 227.836 350.823 227.834 350.822 227.832L350.821 227.829L350.82 227.828C350.82 227.828 350.841 227.821 351.648 227.605C351.399 226.787 351.4 226.786 351.4 226.786L351.402 226.785C351.402 226.785 351.406 226.784 351.408 226.784C351.413 226.782 351.42 226.78 351.428 226.778C351.445 226.773 351.468 226.766 351.498 226.758C351.557 226.741 351.643 226.719 351.752 226.691C351.971 226.636 352.288 226.562 352.688 226.485C353.487 226.33 354.622 226.16 355.983 226.096C358.701 225.967 362.353 226.257 366.027 227.958C369.552 229.59 371.865 231.952 373.318 233.968C372.84 231.509 372.831 228.05 374.582 223.907C376.352 219.72 378.967 217.085 381.149 215.497C382.238 214.705 383.22 214.173 383.935 213.837C384.293 213.669 384.585 213.55 384.791 213.472C384.894 213.432 384.975 213.404 385.033 213.384C385.063 213.374 385.086 213.366 385.103 213.36C385.111 213.358 385.119 213.355 385.124 213.354C385.126 213.353 385.129 213.353 385.131 213.352L385.133 213.351C385.135 213.355 385.152 213.405 385.331 213.988L385.135 213.35L385.927 213.107L386.197 213.89ZM353.287 229.307C353.537 229.788 353.853 230.335 354.249 230.919C355.618 232.94 357.939 235.411 361.742 237.172C365.54 238.93 368.687 238.994 370.862 238.64C371.52 238.532 372.092 238.385 372.569 238.235L353.287 229.307ZM365.306 229.51C361.956 227.959 358.6 227.684 356.064 227.804C355.463 227.833 354.91 227.883 354.416 227.944L372.917 236.511C372.691 236.112 372.42 235.67 372.097 235.206C370.79 233.324 368.649 231.058 365.306 229.51ZM377.22 235.69C377.612 235.451 378.044 235.165 378.498 234.827C380.336 233.457 382.531 231.242 383.963 227.854C385.398 224.459 385.554 221.102 385.344 218.578C385.294 217.979 385.223 217.43 385.145 216.94L377.22 235.69ZM383.739 215.863C383.267 216.129 382.73 216.463 382.159 216.879C380.184 218.316 377.791 220.717 376.162 224.571C374.535 228.421 374.582 231.56 375.014 233.717C375.145 234.37 375.313 234.935 375.481 235.405L383.739 215.863ZM351.648 227.605L350.82 227.828L350.605 227.028L351.399 226.787L351.648 227.605Z" fill="black"/>
<path d="M363.106 172.003L363.107 172.004V172.006C363.107 172.006 363.108 172.008 363.108 172.01C363.109 172.014 363.111 172.019 363.112 172.024C363.116 172.036 363.12 172.052 363.126 172.072C363.137 172.113 363.153 172.171 363.172 172.246C363.21 172.395 363.26 172.611 363.313 172.883C363.418 173.427 363.534 174.2 363.578 175.126C363.665 176.974 363.466 179.461 362.301 181.962C361.133 184.468 359.422 186.075 358.005 187.054C357.297 187.543 356.659 187.877 356.195 188.09C355.963 188.197 355.773 188.273 355.64 188.324C355.573 188.349 355.52 188.368 355.482 188.381C355.463 188.387 355.448 188.393 355.437 188.396C355.432 188.398 355.427 188.399 355.424 188.401L355.419 188.401L355.418 188.402L355.224 187.791L355.416 188.403L354.943 188.551L354.921 188.516L354.776 188.583H354.774L354.767 188.587C354.764 188.588 354.759 188.59 354.753 188.593C354.742 188.598 354.727 188.605 354.709 188.613C354.671 188.628 354.618 188.649 354.551 188.674C354.418 188.723 354.227 188.787 353.985 188.852C353.5 188.983 352.807 189.118 351.95 189.147C350.229 189.206 347.868 188.839 345.235 187.186C342.606 185.534 341.117 183.486 340.286 181.843C339.871 181.023 339.621 180.304 339.473 179.786C339.4 179.526 339.351 179.317 339.321 179.169C339.306 179.095 339.295 179.037 339.288 178.995L339.278 178.93C339.277 178.928 339.278 178.925 339.278 178.925L339.277 178.923C339.277 178.923 339.29 178.92 339.914 178.835L339.277 178.921L339.193 178.307L339.807 178.202H339.809L339.813 178.202C339.817 178.201 339.822 178.2 339.827 178.199C339.839 178.197 339.856 178.195 339.877 178.192C339.919 178.185 339.979 178.177 340.056 178.168C340.209 178.15 340.43 178.127 340.707 178.109C341.261 178.073 342.044 178.057 342.97 178.131C344.819 178.278 347.266 178.791 349.606 180.26C351.534 181.471 352.81 182.97 353.644 184.314C353.561 182.744 353.812 180.767 354.862 178.513C356.171 175.702 358.019 173.969 359.547 172.939C360.31 172.425 360.993 172.086 361.489 171.874C361.738 171.768 361.94 171.694 362.084 171.645C362.155 171.621 362.212 171.603 362.253 171.591C362.273 171.585 362.29 171.58 362.301 171.577C362.307 171.575 362.313 171.574 362.316 171.573C362.318 171.572 362.321 171.571 362.321 171.571H362.323C362.323 171.571 362.324 171.57 362.459 172.072L362.324 171.57L362.925 171.409L363.106 172.003ZM340.99 180.269C341.107 180.571 341.252 180.907 341.434 181.266C342.178 182.737 343.521 184.593 345.92 186.1C348.317 187.605 350.42 187.916 351.906 187.865C352.287 187.852 352.629 187.814 352.926 187.767L340.99 180.269ZM353.343 186.513C353.241 186.275 353.123 186.016 352.983 185.746C352.269 184.373 351.029 182.67 348.921 181.346C346.809 180.019 344.58 179.547 342.868 179.41C342.547 179.384 342.245 179.372 341.966 179.367L353.343 186.513ZM356.556 186.451C356.78 186.32 357.023 186.172 357.273 185.999C358.549 185.118 360.085 183.675 361.135 181.421C362.186 179.163 362.374 176.898 362.293 175.186C362.278 174.866 362.251 174.566 362.221 174.29L356.556 186.451ZM361.201 173.436C360.915 173.59 360.6 173.777 360.267 174.002C358.898 174.925 357.223 176.488 356.028 179.053C354.834 181.616 354.791 183.737 355.029 185.2C355.091 185.576 355.171 185.91 355.256 186.198L361.201 173.436Z" fill="black"/>
<path d="M343.704 121.467C343.41 126.01 343.635 130.58 343.989 135.116C347.631 173.801 362.112 210.528 379.911 244.798C400.334 283.184 408.288 329.523 395.294 371.978C393.892 376.448 392.355 380.764 390.246 385.075C389.984 385.578 389.533 385.956 388.99 386.123C388.447 386.29 387.856 386.233 387.35 385.966C386.844 385.699 386.463 385.244 386.296 384.702C386.129 384.16 386.187 383.576 386.457 383.077C388.37 379.321 390.012 375.009 391.414 370.748C404.678 329.767 397.751 284.064 378.102 245.725C360.761 211.029 346.814 173.929 343.776 135.131C343.492 130.584 343.339 126.005 343.704 121.467Z" fill="black"/>
</svg>
