<svg width="206" height="29" viewBox="0 0 206 29" fill="none" xmlns="http://www.w3.org/2000/svg">
<path d="M-1.16229e-05 27.4C0.213322 27.4 0.399988 27.3467 0.559988 27.24C0.719988 27.1067 0.799988 26.92 0.799988 26.68V8.43999C0.799988 8.19999 0.719988 8.03999 0.559988 7.95999C0.399988 7.85333 0.213322 7.79999 -1.16229e-05 7.79999V7.07999H7.47999V7.79999C7.34666 7.79999 7.19999 7.83999 7.03999 7.92C6.90665 7.99999 6.83999 8.11999 6.83999 8.27999C6.83999 8.41333 6.89332 8.58666 6.99999 8.79999C7.10666 9.01333 7.22666 9.23999 7.35999 9.47999L13.08 19.88L18.84 9.59999C19.0267 9.25333 19.16 8.98666 19.24 8.79999C19.3467 8.58666 19.4 8.39999 19.4 8.23999C19.4 7.94666 19.2267 7.79999 18.88 7.79999V7.07999H26.28V7.79999C26.0667 7.79999 25.88 7.85333 25.72 7.95999C25.56 8.03999 25.48 8.19999 25.48 8.43999V26.68C25.48 26.92 25.56 27.1067 25.72 27.24C25.88 27.3467 26.0667 27.4 26.28 27.4V28.12H20V27.4C20.72 27.4 21.08 27.16 21.08 26.68V13.4H21L12.96 28.12H12.84L4.95999 13.36H4.87999V26.68C4.87999 27.16 5.25332 27.4 5.99999 27.4V28.12H-1.16229e-05V27.4ZM42.9603 10.52C41.947 10.52 40.9336 10.68 39.9203 11C38.907 11.32 37.987 11.7867 37.1603 12.4C36.3603 12.9867 35.707 13.72 35.2003 14.6C34.6936 15.48 34.4403 16.48 34.4403 17.6C34.4403 18.72 34.6936 19.72 35.2003 20.6C35.707 21.48 36.3603 22.2267 37.1603 22.84C37.987 23.4267 38.907 23.88 39.9203 24.2C40.9336 24.52 41.947 24.68 42.9603 24.68C43.9736 24.68 44.987 24.52 46.0003 24.2C47.0136 23.88 47.9203 23.4267 48.7203 22.84C49.547 22.2267 50.2136 21.48 50.7203 20.6C51.227 19.72 51.4803 18.72 51.4803 17.6C51.4803 16.48 51.227 15.48 50.7203 14.6C50.2136 13.72 49.547 12.9867 48.7203 12.4C47.9203 11.7867 47.0136 11.32 46.0003 11C44.987 10.68 43.9736 10.52 42.9603 10.52ZM42.9603 6.83999C44.427 6.83999 45.9203 7.06666 47.4403 7.51999C48.9603 7.94666 50.347 8.59999 51.6003 9.47999C52.8536 10.36 53.8803 11.48 54.6803 12.84C55.4803 14.1733 55.8803 15.76 55.8803 17.6C55.8803 19.44 55.4803 21.04 54.6803 22.4C53.8803 23.7333 52.8536 24.84 51.6003 25.72C50.347 26.6 48.9603 27.24 47.4403 27.64C45.9203 28.04 44.427 28.24 42.9603 28.24C41.4936 28.24 40.0003 28.04 38.4803 27.64C36.9603 27.24 35.5736 26.6 34.3203 25.72C33.067 24.84 32.0403 23.7333 31.2403 22.4C30.4403 21.04 30.0403 19.44 30.0403 17.6C30.0403 15.76 30.4403 14.1733 31.2403 12.84C32.0403 11.48 33.067 10.36 34.3203 9.47999C35.5736 8.59999 36.9603 7.94666 38.4803 7.51999C40.0003 7.06666 41.4936 6.83999 42.9603 6.83999ZM59.7731 27.4C60.2798 27.4 60.5331 27.16 60.5331 26.68V8.51999C60.5331 8.03999 60.2798 7.79999 59.7731 7.79999V7.07999H66.6131V7.79999C66.3998 7.79999 66.2931 7.93333 66.2931 8.19999C66.2931 8.41333 66.5598 8.78666 67.0931 9.31999L78.5731 21.24V8.51999C78.5731 8.03999 78.2265 7.79999 77.5331 7.79999V7.07999H83.5731V7.79999C83.0665 7.79999 82.8131 8.03999 82.8131 8.51999V26.68C82.8131 27.16 83.0665 27.4 83.5731 27.4V28.12H77.0931V27.4C77.4398 27.4 77.6131 27.28 77.6131 27.04C77.6131 26.8533 77.3998 26.5467 76.9731 26.12L64.7731 13.4V26.68C64.7731 27.16 65.0798 27.4 65.6931 27.4V28.12H59.7731V27.4ZM99.3459 26.68C99.3459 27.16 99.6393 27.4 100.226 27.4V28.12H94.0659V27.4C94.2526 27.4 94.4126 27.3467 94.5459 27.24C94.7059 27.1067 94.7859 26.92 94.7859 26.68V10.76H88.1859C87.9459 10.76 87.7059 10.8267 87.4659 10.96C87.2526 11.0933 87.1459 11.3467 87.1459 11.72H86.4259V6.11999H87.1459C87.1459 6.49333 87.2526 6.74666 87.4659 6.87999C87.7059 7.01333 87.9459 7.07999 88.1859 7.07999H105.946C106.186 7.07999 106.413 7.01333 106.626 6.87999C106.866 6.74666 106.986 6.49333 106.986 6.11999H107.706V11.72H106.986C106.986 11.3467 106.866 11.0933 106.626 10.96C106.413 10.8267 106.186 10.76 105.946 10.76H99.3459V26.68ZM122.759 16.44C123.719 16.44 124.519 16.3733 125.159 16.24C125.799 16.08 126.306 15.8667 126.679 15.6C127.052 15.3333 127.319 15.0267 127.479 14.68C127.639 14.3067 127.719 13.9067 127.719 13.48C127.719 13.0533 127.639 12.6667 127.479 12.32C127.319 11.9467 127.052 11.6267 126.679 11.36C126.306 11.0933 125.799 10.8933 125.159 10.76C124.519 10.6 123.719 10.52 122.759 10.52H115.839V16.44H122.759ZM123.799 7.07999C125.079 7.07999 126.239 7.19999 127.279 7.43999C128.319 7.65333 129.212 8.01333 129.959 8.51999C130.706 8.99999 131.279 9.63999 131.679 10.44C132.079 11.2133 132.279 12.1733 132.279 13.32C132.279 15.08 131.759 16.4267 130.719 17.36C129.679 18.2933 128.279 18.92 126.519 19.24L131.839 26.84C132.026 27.1067 132.239 27.2667 132.479 27.32C132.746 27.3733 132.986 27.4 133.199 27.4V28.12H125.719V27.4C125.959 27.4 126.159 27.36 126.319 27.28C126.506 27.2 126.599 27.0933 126.599 26.96C126.599 26.8267 126.546 26.68 126.439 26.52C126.332 26.3333 126.172 26.0933 125.959 25.8L121.559 19.56H115.839V26.68C115.839 26.92 115.919 27.1067 116.079 27.24C116.266 27.3467 116.586 27.4 117.039 27.4V28.12H110.119V27.4C110.892 27.4 111.279 27.16 111.279 26.68V8.51999C111.279 8.03999 110.892 7.79999 110.119 7.79999V7.07999H123.799ZM147.546 5.75999H144.186L147.826 -5.24521e-06H153.226L147.546 5.75999ZM156.586 11.4C156.586 11.1067 156.466 10.8933 156.226 10.76C156.013 10.6 155.626 10.52 155.066 10.52H142.106V15.48H149.946C150.48 15.48 150.893 15.4133 151.186 15.28C151.48 15.12 151.626 14.7333 151.626 14.12H152.346V20.36H151.626C151.626 19.7467 151.48 19.36 151.186 19.2C150.893 19.0133 150.48 18.92 149.946 18.92H142.106V24.44H155.466C155.866 24.44 156.186 24.3467 156.426 24.16C156.693 23.9733 156.826 23.72 156.826 23.4H157.546V28.88H156.826C156.826 28.48 156.693 28.2533 156.426 28.2C156.186 28.1467 155.866 28.12 155.466 28.12H136.826V27.4C137.013 27.4 137.173 27.3467 137.306 27.24C137.466 27.1067 137.546 26.92 137.546 26.68V8.51999C137.546 8.27999 137.466 8.10666 137.306 7.99999C137.173 7.86666 137.013 7.79999 136.826 7.79999V7.07999H155.066C155.626 7.07999 156.013 6.99999 156.226 6.83999C156.466 6.65333 156.586 6.41333 156.586 6.11999H157.306V11.4H156.586ZM173.586 19.96L170.226 12.52L166.466 19.96H173.586ZM158.506 27.4C158.853 27.3467 159.119 27.1733 159.306 26.88C159.519 26.5867 159.719 26.2533 159.906 25.88L167.306 10.32C167.493 9.97333 167.653 9.65333 167.786 9.35999C167.946 9.06666 168.026 8.81333 168.026 8.59999C168.026 8.33333 167.933 8.14666 167.746 8.03999C167.559 7.93333 167.359 7.85333 167.146 7.79999V7.07999H173.906V7.79999C173.719 7.85333 173.533 7.93333 173.346 8.03999C173.159 8.11999 173.066 8.30666 173.066 8.59999C173.066 8.81333 173.106 9.02666 173.186 9.23999C173.293 9.45333 173.439 9.73333 173.626 10.08L181.946 26.36C182.079 26.6533 182.253 26.8667 182.466 27C182.706 27.1333 182.973 27.2667 183.266 27.4V28.12H176.226V27.4C176.333 27.4 176.466 27.36 176.626 27.28C176.786 27.2 176.866 27.08 176.866 26.92C176.866 26.6533 176.759 26.3067 176.546 25.88L175.026 22.92H165.266L163.826 25.76C163.559 26.32 163.426 26.72 163.426 26.96C163.426 27.2533 163.679 27.4 164.186 27.4V28.12H158.506V27.4ZM204.906 28.88C204.906 28.48 204.772 28.2533 204.506 28.2C204.266 28.1467 203.946 28.12 203.546 28.12H184.506V27.4C185.306 27.4 185.706 27.16 185.706 26.68V8.51999C185.706 8.03999 185.306 7.79999 184.506 7.79999V7.07999H191.386V7.79999C190.639 7.79999 190.266 8.03999 190.266 8.51999V24.44H203.546C203.946 24.44 204.266 24.3467 204.506 24.16C204.772 23.9733 204.906 23.72 204.906 23.4H205.626V28.88H204.906Z" fill="#42382E"/>
</svg>
