<svg width="346" height="50" viewBox="0 0 346 50" fill="none" xmlns="http://www.w3.org/2000/svg">
<path d="M336.715 44.224C336.715 43.072 337.12 42.0693 337.931 41.216C338.741 40.3626 339.744 39.936 340.939 39.936C342.091 39.936 343.093 40.3626 343.947 41.216C344.8 42.0693 345.227 43.072 345.227 44.224C345.227 45.4186 344.8 46.4213 343.947 47.232C343.093 48.0426 342.091 48.448 340.939 48.448C339.744 48.448 338.741 48.0426 337.931 47.232C337.12 46.4213 336.715 45.4186 336.715 44.224Z" fill="#42382E"/>
<path d="M319.189 15.808C320.682 15.808 321.983 16.0213 323.092 16.448C324.202 16.8747 325.141 17.472 325.909 18.24C326.719 18.9653 327.359 19.8613 327.828 20.928C328.34 21.952 328.724 23.0613 328.98 24.256C330.175 24.256 331.028 23.8933 331.54 23.168C332.052 22.4 332.415 21.696 332.629 21.056H334.484C334.143 22.464 333.567 23.9146 332.757 25.408C331.988 26.8586 330.9 27.9466 329.492 28.672C329.578 29.184 329.621 29.696 329.621 30.208C329.621 30.6773 329.621 31.168 329.621 31.68C329.621 36.928 328.661 41.0453 326.741 44.032C324.821 47.0186 322.133 48.512 318.677 48.512C317.269 48.512 315.839 48.256 314.388 47.744C312.98 47.232 311.7 46.3786 310.548 45.184C309.396 43.9893 308.458 42.4533 307.733 40.576C307.05 38.6986 306.708 36.3733 306.708 33.6C306.708 31.7226 306.901 29.7386 307.285 27.648C307.711 25.5573 308.394 23.6373 309.332 21.888C310.314 20.1386 311.594 18.688 313.173 17.536C314.794 16.384 316.799 15.808 319.189 15.808ZM319.828 43.648C322.09 43.648 323.754 42.5387 324.82 40.32C325.887 38.0587 326.421 34.88 326.421 30.784C326.421 30.5706 326.399 30.3573 326.357 30.144C326.357 29.888 326.357 29.6533 326.357 29.44C325.162 29.44 324.287 29.12 323.733 28.48C323.178 27.7973 322.901 26.8373 322.901 25.6C322.901 24.7467 323.114 24.0853 323.54 23.616C323.967 23.104 324.543 22.8053 325.268 22.72C324.756 21.4826 324.117 20.608 323.349 20.096C322.581 19.584 321.749 19.328 320.853 19.328C319.53 19.328 318.399 19.776 317.461 20.672C316.565 21.5253 315.818 22.6347 315.22 24C314.666 25.3653 314.26 26.88 314.004 28.544C313.748 30.1653 313.621 31.7653 313.621 33.344C313.621 35.4346 313.813 37.1413 314.197 38.464C314.581 39.7866 315.071 40.832 315.668 41.6C316.266 42.368 316.927 42.9013 317.652 43.2C318.378 43.4986 319.103 43.648 319.828 43.648Z" fill="#42382E"/>
<path d="M309.34 37.248C308.231 41.1307 306.183 44.096 303.196 46.144C300.209 48.1493 296.689 49.152 292.636 49.152C287.132 49.152 282.844 47.2107 279.772 43.328C276.743 39.4453 275.228 33.5787 275.228 25.728C275.228 22.784 275.484 19.7973 275.996 16.768C276.508 13.7387 277.404 11.008 278.684 8.57599C279.964 6.10132 281.671 4.07466 283.804 2.49599C285.98 0.917324 288.711 0.127991 291.996 0.127991C293.617 0.127991 295.153 0.341325 296.604 0.767994C298.055 1.19466 299.313 1.83466 300.38 2.68799C301.489 3.49866 302.364 4.52266 303.004 5.75999C303.644 6.99733 303.964 8.44799 303.964 10.112C303.964 11.4773 303.708 12.5653 303.196 13.376C302.684 14.1867 301.809 14.592 300.572 14.592C299.975 14.592 299.399 14.5067 298.844 14.336C298.332 14.1227 297.905 13.824 297.564 13.44C297.948 13.1413 298.289 12.5227 298.588 11.584C298.929 10.6453 299.1 9.57866 299.1 8.38399C299.1 6.33599 298.609 4.84266 297.628 3.90399C296.647 2.92266 295.345 2.43199 293.724 2.43199C291.804 2.43199 290.14 3.07199 288.732 4.35199C287.367 5.58933 286.236 7.25333 285.34 9.34399C284.444 11.4347 283.783 13.8027 283.356 16.448C282.972 19.0933 282.78 21.824 282.78 24.64C282.78 28.1387 283.079 31.1253 283.676 33.6C284.273 36.0747 285.148 38.1013 286.3 39.68C287.452 41.2587 288.86 42.432 290.524 43.2C292.231 43.9253 294.172 44.288 296.348 44.288C299.121 44.288 301.425 43.6907 303.26 42.496C305.095 41.2587 306.588 39.296 307.74 36.608L309.34 37.248Z" fill="#42382E"/>
<path d="M258.113 21.696C258.156 21.824 258.177 21.9733 258.177 22.144C258.177 22.272 258.177 22.4 258.177 22.528C258.177 23.296 257.964 24.0853 257.537 24.896C257.11 25.664 256.513 26.368 255.745 27.008C255.02 27.648 254.145 28.2027 253.121 28.672C252.097 29.0987 250.966 29.3547 249.729 29.44C249.644 32.512 249.238 35.2853 248.513 37.76C247.788 40.192 246.742 42.2613 245.377 43.968C244.012 45.6747 242.348 46.9973 240.385 47.936C238.422 48.832 236.161 49.28 233.601 49.28C231.041 49.28 228.865 48.8533 227.073 48C225.281 47.104 223.83 45.9733 222.721 44.608C221.654 43.2427 220.865 41.7067 220.353 40C219.884 38.2507 219.649 36.5227 219.649 34.816C219.649 31.4453 220.438 28.6507 222.017 26.432C223.638 24.1707 225.729 22.5067 228.289 21.44C226.241 20.16 224.769 18.688 223.873 17.024C222.977 15.36 222.529 13.6107 222.529 11.776C222.529 10.368 222.785 8.96 223.297 7.552C223.809 6.144 224.598 4.88533 225.665 3.776C226.732 2.66667 228.033 1.77067 229.569 1.088C231.148 0.362667 233.004 0 235.137 0C236.289 0 237.441 0.128 238.593 0.383999C239.788 0.640001 240.854 1.088 241.793 1.728C242.732 2.32533 243.478 3.15733 244.033 4.224C244.63 5.248 244.929 6.54933 244.929 8.128C244.929 9.74933 244.609 11.0293 243.969 11.968C243.329 12.9067 242.476 13.376 241.409 13.376C240.257 13.376 239.126 12.8 238.017 11.648C238.614 11.392 239.19 10.88 239.745 10.112C240.342 9.30133 240.641 8.27733 240.641 7.04C240.641 6.22933 240.492 5.54667 240.193 4.992C239.894 4.39467 239.489 3.904 238.977 3.52C238.508 3.136 237.974 2.85867 237.377 2.688C236.78 2.51733 236.161 2.432 235.521 2.432C234.369 2.432 233.345 2.688 232.449 3.2C231.553 3.712 230.806 4.39467 230.209 5.248C229.612 6.05867 229.142 6.99733 228.801 8.064C228.502 9.13067 228.353 10.24 228.353 11.392C228.353 11.904 228.417 12.6293 228.545 13.568C228.673 14.5067 228.972 15.488 229.441 16.512C229.91 17.536 230.614 18.496 231.553 19.392C232.534 20.288 233.857 20.9493 235.521 21.376C232.705 22.016 230.529 23.4667 228.993 25.728C227.5 27.9467 226.753 30.592 226.753 33.664C226.753 36.736 227.564 39.2747 229.185 41.28C230.849 43.2427 233.409 44.224 236.865 44.224C238.956 44.224 240.684 43.84 242.049 43.072C243.457 42.304 244.566 41.2587 245.377 39.936C246.23 38.5707 246.828 36.992 247.169 35.2C247.553 33.408 247.788 31.488 247.873 29.44C247.062 29.3547 246.252 29.2693 245.441 29.184C244.63 29.0987 243.862 29.056 243.137 29.056C240.321 29.056 238.508 30.016 237.697 31.936L237.249 31.872C237.377 29.568 238.294 27.712 240.001 26.304C241.75 24.8533 244.161 24.128 247.233 24.128C248.214 24.128 249.089 24.192 249.857 24.32C250.625 24.4053 251.393 24.448 252.161 24.448C253.398 24.448 254.55 24.2347 255.617 23.808C256.684 23.3813 257.388 22.6773 257.729 21.696H258.113Z" fill="#42382E"/>
<path d="M196.65 14.144C197.674 18.24 198.527 21.5893 199.21 24.192C199.893 26.752 200.426 28.928 200.81 30.72C201.237 32.4693 201.535 34.0267 201.706 35.392C201.877 36.7573 201.962 38.272 201.962 39.936C201.962 41.5146 201.621 42.8586 200.938 43.968C200.255 45.0346 199.402 45.9093 198.378 46.592C197.354 47.2747 196.266 47.7653 195.114 48.064C193.962 48.3627 192.938 48.512 192.042 48.512C190.165 48.512 188.607 48.2133 187.37 47.616C186.175 47.0186 185.215 46.272 184.49 45.376C183.765 44.4373 183.253 43.4133 182.954 42.304C182.655 41.152 182.506 40.064 182.506 39.04C182.506 37.9306 182.719 36.9706 183.146 36.16C183.615 35.3066 184.17 34.7093 184.81 34.368C185.919 31.168 187.007 28.0106 188.074 24.896C189.141 21.7386 189.845 18.5813 190.186 15.424L196.65 14.144ZM195.178 39.232C195.178 37.9093 195.093 36.736 194.922 35.712C194.794 34.688 194.581 33.5573 194.282 32.32C193.983 31.0827 193.599 29.5893 193.13 27.84C192.703 26.048 192.191 23.7653 191.594 20.992C191.338 23.3813 190.805 25.664 189.994 27.84C189.226 30.016 188.522 32.256 187.882 34.56C188.266 34.816 188.586 35.1786 188.842 35.648C189.141 36.0747 189.29 36.6507 189.29 37.376C189.29 38.1867 189.077 38.8053 188.65 39.232C188.223 39.6587 187.754 39.872 187.242 39.872C186.559 39.872 185.983 39.5733 185.514 38.976C185.855 40.4693 186.453 41.6426 187.306 42.496C188.159 43.3066 189.29 43.712 190.698 43.712C192.063 43.712 193.151 43.3707 193.962 42.688C194.773 41.9627 195.178 40.8107 195.178 39.232Z" fill="#42382E"/>
<path d="M180.383 24.128C180.383 27.1147 179.146 29.6106 176.672 31.616C174.24 33.6213 170.847 34.8587 166.495 35.328C166.666 37.0347 166.965 38.4213 167.391 39.488C167.861 40.5547 168.415 41.408 169.055 42.048C169.695 42.6453 170.421 43.072 171.232 43.328C172.085 43.5413 172.96 43.648 173.855 43.648C175.903 43.648 177.824 43.1146 179.616 42.048C181.408 40.9813 182.858 39.1893 183.967 36.672H186.016C185.461 38.2506 184.693 39.7653 183.712 41.216C182.73 42.624 181.578 43.8826 180.256 44.992C178.933 46.0586 177.503 46.912 175.967 47.552C174.431 48.192 172.853 48.512 171.232 48.512C169.738 48.512 168.288 48.256 166.88 47.744C165.514 47.232 164.298 46.4 163.232 45.248C162.165 44.0533 161.29 42.5173 160.607 40.64C159.967 38.7627 159.648 36.4586 159.648 33.728C159.648 31.936 159.839 29.9947 160.223 27.904C160.65 25.8133 161.333 23.872 162.271 22.08C163.253 20.288 164.512 18.7946 166.048 17.6C167.626 16.4053 169.568 15.808 171.872 15.808C172.938 15.808 173.962 15.936 174.943 16.192C175.967 16.4053 176.885 16.832 177.695 17.472C178.506 18.0693 179.146 18.9013 179.616 19.968C180.128 21.0346 180.383 22.4213 180.383 24.128ZM166.432 32.832C169.461 32.3626 171.85 31.296 173.6 29.632C175.392 27.968 176.288 25.92 176.288 23.488C176.288 21.8667 176.01 20.7146 175.456 20.032C174.901 19.3066 174.111 18.944 173.087 18.944C171.978 18.944 170.997 19.3706 170.144 20.224C169.333 21.0773 168.65 22.1866 168.096 23.552C167.541 24.8746 167.114 26.368 166.816 28.032C166.56 29.6533 166.432 31.2533 166.432 32.832Z" fill="#42382E"/>
<path d="M151.567 25.92C151.908 25.6213 152.164 25.152 152.335 24.512C152.548 23.8293 152.655 23.1893 152.655 22.592C152.655 21.6106 152.335 20.8 151.695 20.16C151.098 19.52 150.244 19.2 149.135 19.2C147.983 19.2 147.023 19.6266 146.255 20.48C145.487 21.3333 144.868 22.4213 144.399 23.744C143.93 25.024 143.588 26.4746 143.375 28.096C143.204 29.6746 143.119 31.232 143.119 32.768C143.119 35.0293 143.311 36.864 143.695 38.272C144.122 39.68 144.676 40.7893 145.359 41.6C146.042 42.368 146.831 42.9013 147.727 43.2C148.666 43.4986 149.647 43.648 150.671 43.648C152.932 43.648 154.831 43.0933 156.367 41.984C157.946 40.832 159.29 39.0613 160.399 36.672H162.575C162.063 38.2506 161.338 39.7653 160.399 41.216C159.46 42.624 158.372 43.8826 157.135 44.992C155.898 46.0586 154.554 46.912 153.103 47.552C151.652 48.192 150.138 48.512 148.559 48.512C147.066 48.512 145.594 48.256 144.143 47.744C142.692 47.232 141.391 46.4 140.239 45.248C139.087 44.0533 138.148 42.5173 137.423 40.64C136.698 38.72 136.335 36.3733 136.335 33.6C136.335 31.808 136.484 29.888 136.783 27.84C137.124 25.7493 137.722 23.8293 138.575 22.08C139.471 20.288 140.687 18.7946 142.223 17.6C143.759 16.4053 145.743 15.808 148.175 15.808C150.863 15.808 152.911 16.4693 154.319 17.792C155.727 19.072 156.431 20.9706 156.431 23.488C156.431 24.5547 156.218 25.4506 155.791 26.176C155.407 26.9013 154.788 27.264 153.935 27.264C152.996 27.264 152.207 26.816 151.567 25.92Z" fill="#42382E"/>
<path d="M113.564 16.128V20.992C114.204 19.84 114.844 18.9226 115.484 18.24C116.167 17.5146 116.849 16.9813 117.532 16.64C118.215 16.2987 118.855 16.0853 119.452 16C120.092 15.872 120.689 15.808 121.244 15.808C123.164 15.808 124.7 16.1706 125.852 16.896C127.047 17.6213 127.943 18.56 128.54 19.712C129.137 20.8213 129.521 22.0586 129.692 23.424C129.905 24.7466 130.012 26.0267 130.012 27.264C130.012 28.032 129.991 28.8853 129.948 29.824C129.905 30.72 129.863 31.6587 129.82 32.64C129.777 33.5787 129.735 34.5386 129.692 35.52C129.649 36.4586 129.628 37.3333 129.628 38.144C129.628 38.4853 129.649 38.976 129.692 39.616C129.735 40.2133 129.841 40.8106 130.012 41.408C130.183 42.0053 130.46 42.5387 130.844 43.008C131.228 43.4347 131.783 43.648 132.508 43.648C133.489 43.648 134.364 43.0933 135.132 41.984C135.943 40.8746 136.604 39.104 137.116 36.672H139.484C139.015 39.36 138.417 41.4933 137.692 43.072C136.967 44.608 136.199 45.7813 135.388 46.592C134.577 47.4027 133.767 47.9146 132.956 48.128C132.145 48.384 131.399 48.512 130.716 48.512C129.351 48.512 128.199 48.256 127.26 47.744C126.321 47.1893 125.553 46.464 124.956 45.568C124.359 44.672 123.911 43.6267 123.612 42.432C123.356 41.2373 123.228 40 123.228 38.72C123.228 38.336 123.228 37.632 123.228 36.608C123.271 35.5413 123.292 34.4106 123.292 33.216C123.335 32.0213 123.356 30.8906 123.356 29.824C123.399 28.7573 123.42 28.0107 123.42 27.584C123.42 26.2187 123.313 25.088 123.1 24.192C122.887 23.296 122.588 22.592 122.204 22.08C121.82 21.568 121.372 21.2053 120.86 20.992C120.391 20.7786 119.879 20.672 119.324 20.672C118.001 20.672 116.849 21.2053 115.868 22.272C114.929 23.3386 114.161 25.1306 113.564 27.648V48.128H107.164V16.128H113.564Z" fill="#42382E"/>
<path d="M99.7175 16.128V37.888C99.7175 38.3146 99.7388 38.848 99.7815 39.488C99.8242 40.128 99.9308 40.768 100.102 41.408C100.315 42.0053 100.614 42.5387 100.998 43.008C101.382 43.4347 101.915 43.648 102.598 43.648C104.688 43.648 106.224 41.3226 107.206 36.672H109.574C109.104 39.36 108.507 41.4933 107.782 43.072C107.056 44.608 106.288 45.7813 105.478 46.592C104.667 47.4027 103.835 47.9146 102.982 48.128C102.128 48.384 101.36 48.512 100.678 48.512C99.6962 48.512 98.8428 48.3413 98.1175 48C97.4348 47.6587 96.8375 47.2106 96.3255 46.656C95.8562 46.1013 95.4722 45.4613 95.1735 44.736C94.8748 44.0107 94.6402 43.2427 94.4695 42.432C93.8295 44.096 92.7842 45.5253 91.3335 46.72C89.9255 47.9146 88.1975 48.512 86.1495 48.512C84.8695 48.512 83.5682 48.256 82.2455 47.744C80.9655 47.232 79.7922 46.4 78.7255 45.248C77.7015 44.0533 76.8482 42.5386 76.1655 40.704C75.5255 38.8266 75.2055 36.544 75.2055 33.856C75.2055 31.8933 75.4188 29.8453 75.8455 27.712C76.3148 25.5786 77.0402 23.6373 78.0215 21.888C79.0028 20.1386 80.2615 18.688 81.7975 17.536C83.3335 16.384 85.1895 15.808 87.3655 15.808C87.8775 15.808 88.4108 15.872 88.9655 16C89.5628 16.0853 90.1175 16.256 90.6295 16.512C91.1842 16.768 91.6962 17.1306 92.1655 17.6C92.6348 18.0267 93.0188 18.56 93.3175 19.2V16.128H99.7175ZM87.7495 43.648C88.3895 43.648 89.0295 43.4773 89.6695 43.136C90.3522 42.752 90.9495 42.2613 91.4615 41.664C92.0162 41.024 92.4642 40.2773 92.8055 39.424C93.1468 38.5706 93.3175 37.6533 93.3175 36.672V22.08C93.0188 21.3973 92.5495 20.7787 91.9095 20.224C91.3122 19.6267 90.5228 19.328 89.5415 19.328C88.1762 19.328 87.0028 19.7973 86.0215 20.736C85.0402 21.632 84.2508 22.784 83.6535 24.192C83.0562 25.5573 82.6082 27.072 82.3095 28.736C82.0535 30.3573 81.9255 31.9146 81.9255 33.408C81.9255 37.0773 82.4162 39.7013 83.3975 41.28C84.4215 42.8587 85.8722 43.648 87.7495 43.648Z" fill="#42382E"/>
<path d="M68.671 16.128V37.888C68.671 38.3147 68.6923 38.848 68.735 39.488C68.7777 40.128 68.8843 40.768 69.055 41.408C69.2683 42.0053 69.567 42.5387 69.951 43.008C70.335 43.4347 70.8683 43.648 71.551 43.648C73.6417 43.648 75.1777 41.3227 76.159 36.672H78.527C78.0577 39.36 77.4603 41.4933 76.735 43.072C76.0097 44.608 75.2417 45.7813 74.431 46.592C73.6203 47.4027 72.7883 47.9147 71.935 48.128C71.0817 48.384 70.3137 48.512 69.631 48.512C68.6497 48.512 67.7963 48.3413 67.071 48C66.3883 47.6587 65.791 47.2107 65.279 46.656C64.8097 46.1013 64.4257 45.4613 64.127 44.736C63.8283 44.0107 63.5937 43.264 63.423 42.496C62.6123 44.5867 61.5457 46.1227 60.223 47.104C58.9003 48.0427 57.5137 48.512 56.063 48.512C54.8257 48.512 53.6523 48.3413 52.543 48C51.4337 47.6587 50.4737 47.104 49.663 46.336C48.8523 45.5253 48.2123 44.5013 47.743 43.264C47.2737 41.984 47.039 40.4267 47.039 38.592V16.128H53.439V37.888C53.439 39.9787 53.8017 41.472 54.527 42.368C55.2523 43.2213 56.1697 43.648 57.279 43.648C57.8763 43.648 58.4737 43.4987 59.071 43.2C59.6683 42.8587 60.2017 42.3893 60.671 41.792C61.1403 41.1947 61.5243 40.4693 61.823 39.616C62.1217 38.7627 62.271 37.7813 62.271 36.672V16.128H68.671Z" fill="#42382E"/>
<path d="M41.152 0.255993V48.128H32.576L16.512 12.096V48.128H12.224V4.03199C9.87733 4.84266 8.04267 6.14399 6.72 7.93599C5.39733 9.68533 4.736 11.9893 4.736 14.848C4.736 16.1707 4.84267 17.3013 5.056 18.24C5.26933 19.136 5.52533 19.904 5.824 20.544C6.12267 21.1413 6.44267 21.632 6.784 22.016C7.168 22.4 7.50933 22.72 7.808 22.976C5.12 22.976 3.136 22.336 1.856 21.056C0.618667 19.7333 0 17.6213 0 14.72C0 12.9707 0.341333 11.2427 1.024 9.53599C1.74933 7.78666 2.752 6.22932 4.032 4.86399C5.312 3.45599 6.848 2.32533 8.64 1.47199C10.432 0.575991 12.416 0.127991 14.592 0.127991C15.3173 0.127991 16.064 0.191991 16.832 0.319992C17.6 0.447993 18.3467 0.682659 19.072 1.02399L36.864 42.112V0.255993H41.152Z" fill="#42382E"/>
</svg>
